<?xml version="1.0" encoding="utf-8"?>
<!-- Generator: Adobe Illustrator 17.1.0, SVG Export Plug-In . SVG Version: 6.00 Build 0)  -->
<!DOCTYPE svg PUBLIC "-//W3C//DTD SVG 1.1//EN" "http://www.w3.org/Graphics/SVG/1.1/DTD/svg11.dtd">
<svg version="1.1" id="Layer_1" xmlns="http://www.w3.org/2000/svg" xmlns:xlink="http://www.w3.org/1999/xlink" x="0px" y="0px"
	 viewBox="0 0 150 150" enable-background="new 0 0 150 150" xml:space="preserve">
<g id="Icon_26_">
	<g>
		<path fill-rule="evenodd" clip-rule="evenodd" fill="#7F8C8D" d="M114.7,48.4c0.4-1,0.4-3.9,0-5.3c-0.3-1.1-71.1-3.1-71.7-1
			c-0.6,2-0.3,5.1,0,6.3C43.2,49.7,114.2,49.5,114.7,48.4z M117.1,54.7c-0.3-1.1-71.1-3.1-71.7-1c-0.6,2-0.3,5.1,0,6.3
			c0.3,1.2,71.3,1.1,71.7,0C117.5,59,117.5,56.1,117.1,54.7z M56.6,63.5c4.9,2.8,9.9,5.6,14.5,8.1c10.5,0,21.5-0.1,29.5-0.2
			c1.7-2,3.4-4.3,5.2-6.6C95,64.1,72.2,63.5,56.6,63.5z"/>
	</g>
</g>
<g id="Icon_11_">
	<g>
		<path fill-rule="evenodd" clip-rule="evenodd" fill="#7F8C8D" d="M137.9,47.4L137.9,47.4c-0.7-5.6-59.3-45.9-71.6-45.5
			C54,2.3,15.9,45.3,14.2,53.3c-6.5,15.1,2.7,87.8,10.3,93.3c8.1,5.8,109.2-19.9,112.3-23.5C139.9,119.6,140.3,55.4,137.9,47.4z
			 M129.1,115.4c-1.9,3.7-91.4,27.5-95.8,22c-4.4-5.5-16.8-76.6-9.6-81.2c1.4-0.9,0.4-4.8,7.8-5.6c-0.1-7.3,3.2-11.9,4.8-14.6
			c3.4-5.8,82.3-0.2,85,3.5c0.7,0.9,1,5.3,1.2,10.2c5.7,0.2,6.2,0.5,6.7,1.1C131.9,54,131,111.7,129.1,115.4z M125.5,61.9
			c0,0-24.9,38.3-30.4,38.9C88.5,101.5,29,65.2,29,65.2s19.8,15.5,37.9,28l-31,35.3l41.3-25.4c8.4,5.4,15.2,6,17.7,5.6
			c2.8-0.5,6.9-2,11.3-8.2l21,11.2l-14.1-20C122.4,77.3,125.5,61.9,125.5,61.9z"/>
	</g>
</g>
</svg>
