<?xml version="1.0" encoding="utf-8"?>
<!-- Generator: Adobe Illustrator 17.1.0, SVG Export Plug-In . SVG Version: 6.00 Build 0)  -->
<!DOCTYPE svg PUBLIC "-//W3C//DTD SVG 1.1//EN" "http://www.w3.org/Graphics/SVG/1.1/DTD/svg11.dtd">
<svg version="1.1" id="Layer_1" xmlns="http://www.w3.org/2000/svg" xmlns:xlink="http://www.w3.org/1999/xlink" x="0px" y="0px"
	 viewBox="0 0 150 150" enable-background="new 0 0 150 150" xml:space="preserve">
<g id="Icon_320_">
	<g>
		<path fill-rule="evenodd" clip-rule="evenodd" fill="#ECF0F1" d="M137.7,47.9c-6.8-11.8-13.6-23.6-20.3-35.3
			c-1.7,2.3-3.6,4.6-5.5,6.9l0.1-0.2c-0.1,0.1-0.1,0.2-0.2,0.3c-0.5,0.6-1,1.2-1.5,1.7C93.7,23,30.6,29.6,3.9,34.7
			c0,0,5.2,76,6,111.7c0,0,59.8-4,106.1-3.8l-1-75.9C122,60.2,129.6,53.8,137.7,47.9z M98.1,122.8l-72.5,4.6l-4.5-77.5l75.3-12.1
			c-9.7,13-18.2,29.3-25.5,42.9c0,0-15.4-19.7-25.8-29.1l-8,15.3c0,0,16.6,19.4,34.8,47.8c0,0,10.7-15.2,28.1-33.3L98.1,122.8z"/>
	</g>
</g>
<g id="Icon_5_">
	<g>
		<path fill-rule="evenodd" clip-rule="evenodd" fill="#24AE5F" d="M124.3,2.6c-5.1,6.8-11.4,14-17.1,20.4
			C93.4,38.5,81.7,61.2,71.7,79.6c0,0-17.4-22.3-29.2-32.9l-9,17.3c0,0,18.8,21.9,39.3,54.1c-3.3-5.2,22.8-30.3,26-33.8
			c4.8-5.2,47.5-43.5,48.4-41.8C139.6,29.2,131.9,15.9,124.3,2.6z"/>
	</g>
</g>
</svg>
