<?xml version="1.0" encoding="utf-8"?>
<!-- Generator: Adobe Illustrator 17.1.0, SVG Export Plug-In . SVG Version: 6.00 Build 0)  -->
<!DOCTYPE svg PUBLIC "-//W3C//DTD SVG 1.1//EN" "http://www.w3.org/Graphics/SVG/1.1/DTD/svg11.dtd">
<svg version="1.1" id="Layer_1" xmlns="http://www.w3.org/2000/svg" xmlns:xlink="http://www.w3.org/1999/xlink" x="0px" y="0px"
	 viewBox="0 0 150 150" enable-background="new 0 0 150 150" xml:space="preserve">
<g id="Icon_9_">
	<g>
		<path fill-rule="evenodd" clip-rule="evenodd" fill="#FDCC9A" d="M139,44.6c-1.6-6.9-39.3,7.7-39.3,7.7s8.4-16.7,4.8-34.1
			C102.6,8.9,77.3-4.1,70,3.1c-7.3,7.1,4.8,42.8,2.3,46.4c-2.5,3.6-15.3,10.6-16.7,18.8c-1.4,8.2,5.2,24.3,5.2,24.3l-8.4-0.1
			c-0.8-14.8-2.3-27.8-4-28.6c-4-1.9-39.8,5.9-43.8,11.5c-4,5.6,4,58.7,6.2,60.5c2.2,1.9,37.6,3.4,40.9,0c1.2-1.2,1.6-10.7,1.5-22.4
			l10.8-1.6c0,0-0.4,21,3.3,25c6.8,7.3,72,9.2,75.6,3.7C146.3,135.1,149.8,92.1,139,44.6z"/>
	</g>
</g>
<g id="Icon_149_">
	<g>
		<path fill-rule="evenodd" clip-rule="evenodd" fill="#2980BA" d="M53.2,115.3c0.5-15.5-0.1-31.6-1.3-47.1c-0.1-1.3-0.2-2.7-0.5-4
			c-0.3-1.3-0.8-2.4-1.6-3.4c-2.3-2.5-6-1.9-9.1-1.1c-6.9,1.8-13.8,3.6-20.6,5.3C14.4,66.6,8,68.6,5.1,74.4
			C2.9,78.7,3.2,84,3.6,88.9c1.2,15,2.9,30,4.9,44.9c0.4,3.2,1,6.7,3.1,8.9c2.2,2.3,5.4,2.6,8.4,2.7c6,0.3,11.9,0.6,17.9,0.9
			c4.2,0.2,8.8,0.3,12.3-2.5C57.2,138.1,53,123.8,53.2,115.3z"/>
	</g>
</g>
</svg>
