<?xml version="1.0" encoding="utf-8"?>
<!-- Generator: Adobe Illustrator 17.1.0, SVG Export Plug-In . SVG Version: 6.00 Build 0)  -->
<!DOCTYPE svg PUBLIC "-//W3C//DTD SVG 1.1//EN" "http://www.w3.org/Graphics/SVG/1.1/DTD/svg11.dtd">
<svg version="1.1" id="Layer_1" xmlns="http://www.w3.org/2000/svg" xmlns:xlink="http://www.w3.org/1999/xlink" x="0px" y="0px"
	 viewBox="0 0 546.714 208.848" enable-background="new 0 0 546.714 208.848" xml:space="preserve">
<path fill="#715D26" d="M275.153,482.621l0.468-69.882c0,0,0.089-13.094,12.564-18.492c4.176-1.807,7.097-1.833,11.16-2.764
	c0,0,9.161-1.393,8.748-11.009c0,0,6.433,5.413,6.965,9.979c0.843,7.262-5.159,8.344-4.295,8.227c0,0-3.248,1.516-9.478,1.651
	c-2.942,0.063-7.314-0.139-10.39,2.579c-4.28,3.782-5.594,7.269-6.85,12.464c0,0-2.504,10.726,3.247,18.972
	c0,0,3.546,5.485,7.828,5.949c0,0,6.395,1.27,11.058-5.042c0,0,3.127-3.267,3.228-11.573c0,0-0.068-5.888-3.066-9.972
	c0,0-1.009-1.807-3.969-3.854l1.615-3.625c0,0,2.552-4.88,6.451-2.259c1.385,0.931,2.465,2.427,3.375,4.258
	c0,0,4.087,7.441,4.135,15.455c0,0,0.182,7.345-2.447,13.428c0,0-2.19,5.878-6.176,9.21c0,0-3.125,3.2-7.807,4.453
	c0,0-4.364,1.371-9.549-0.322c0,0-3.516-1.108-7.033-3.589l0.013,31.205c0,0,0.245,4.205-4.267,4.551H275.153z"/>
<path fill="#715D26" d="M271.967,455.781l-0.587-34.181c0,0-0.124-11.383-17.32-16.074c-5.757-1.571-9.785-1.594-15.386-2.403
	c0,0-12.629-1.211-12.059-9.57c0,0-8.87,4.705-9.602,8.675c-1.163,6.313,7.111,7.252,5.92,7.15c0,0,4.48,1.319,13.066,1.436
	c4.056,0.056,10.084-0.121,14.323,2.241c5.903,3.289,7.713,6.32,9.444,10.835c0,0,3.453,9.322-4.475,16.492
	c0,0-4.89,4.766-10.794,5.171c0,0-8.813,1.103-15.244-4.384c0,0-4.31-2.838-4.449-10.059c0,0,0.092-5.119,4.225-8.67
	c0,0,1.393-1.57,5.473-3.349l-2.226-3.15c0,0-3.519-4.241-8.894-1.963c-1.91,0.809-3.397,2.108-4.653,3.699
	c0,0-5.632,6.469-5.7,13.434c0,0-0.248,6.386,3.371,11.674c0,0,3.022,5.11,8.516,8.005c0,0,4.31,2.781,10.765,3.869
	c0,0,6.016,1.192,13.162-0.278c0,0,4.849-0.964,9.696-3.121l-0.074,0.564c0,0-0.339,3.656,5.883,3.955H271.967z"/>
<path fill="#715D26" d="M83.24,438.222h9.071c0.345,2.593,1.339,4.407,2.981,5.443c1.727,1.212,4.103,1.814,7.127,1.814
	c2.677,0,4.708-0.473,6.092-1.424c1.38-0.95,2.072-2.332,2.072-4.146c0-2.764-3.887-5.01-11.662-6.739l-0.259-0.129l-1.037-0.259
	c-4.406-0.949-7.344-1.944-8.813-2.98c-1.729-0.949-2.938-2.333-3.628-4.147c-0.864-1.556-1.297-3.542-1.297-5.96
	c0-4.233,1.468-7.56,4.407-9.98c2.935-2.331,7.212-3.498,12.829-3.498c5.269,0,9.331,1.209,12.183,3.627
	c2.936,2.679,4.491,6.179,4.665,10.497h-5.185c-1.988,0-3.413-0.905-4.275-2.722c-0.434-0.861-1.038-1.596-1.815-2.203
	c-1.555-1.12-3.672-1.685-6.35-1.685c-2.591,0-4.45,0.477-5.572,1.428c-1.295,0.951-1.943,2.289-1.943,4.016
	c0,2.332,2.504,4.063,7.516,5.184c1.468,0.435,2.548,0.692,3.241,0.778c1.554,0.518,2.915,0.928,4.082,1.23
	c1.167,0.305,2.093,0.54,2.786,0.712c1.209,0.52,2.418,1.039,3.628,1.556c1.729,1.036,3.067,2.379,4.018,4.017
	c0.951,1.815,1.426,3.804,1.426,5.962c0,4.665-1.555,8.294-4.665,10.886c-3.11,2.42-7.517,3.629-13.218,3.629
	c-5.876,0-10.283-1.253-13.218-3.76C85.227,446.864,83.499,443.148,83.24,438.222z"/>
<path fill="#715D26" d="M208.841,406.292v26.955c0,8.178-2.029,13.533-6.079,16.066c-4.052,2.536-8.489,3.8-13.308,3.8
	c-4.711-0.23-9.009-1.612-12.895-4.146c-3.89-2.532-5.833-7.776-5.833-15.721v-26.955h11.501v29.372c0,2.766,0.764,4.78,2.3,6.047
	c1.532,1.268,3.286,1.9,5.258,1.9c1.969,0,3.749-0.632,5.338-1.9c1.586-1.267,2.383-3.281,2.383-6.047v-23.498
	c0-1.611,0.518-2.993,1.559-4.145c1.04-1.149,2.383-1.729,4.025-1.729H208.841z"/>
<path fill="#715D26" d="M142.383,406.215c2.905,0,5.991,0.777,8.452,1.66c1.817,0.652,4.363,2.284,6.167,3.825
	c4.701,4.015,6.823,9.32,7.376,15.036c0.307,3.179,0.154,2.884,0.154,5.788v41.7c0,0-0.376,0-3.912,0
	c-6.851,0.464-6.189-4.131-6.189-4.131v-24.268c-4.804,2.431-8.819,3.563-12.553,3.563c-3.026,0-5.858-0.562-8.496-1.691
	c-2.638-1.124-4.921-2.666-6.849-4.625c-1.927-1.958-3.439-4.239-4.536-6.848c-1.098-2.61-1.646-5.395-1.646-8.361
	c0-2.965,0.579-5.75,1.733-8.36c1.158-2.609,2.714-4.893,4.671-6.849c1.957-1.957,4.238-3.499,6.849-4.625
	C136.213,406.904,139.477,406.215,142.383,406.215z M154.685,427.863c0-1.718-0.325-3.35-0.978-4.891
	c-0.654-1.541-1.557-2.89-2.712-4.047c-1.157-1.156-2.508-2.075-4.048-2.757c-1.542-0.682-3.232-1.024-5.068-1.024
	c-1.722,0-3.352,0.327-4.893,0.979c-1.543,0.653-2.891,1.556-4.048,2.714c-1.155,1.154-2.075,2.504-2.757,4.045
	c-0.682,1.544-1.023,3.203-1.023,4.982c0,1.778,0.325,3.44,0.979,4.982c0.653,1.542,1.542,2.904,2.668,4.088
	c1.127,1.189,2.476,2.124,4.048,2.803c1.57,0.683,3.246,1.024,5.026,1.024c1.717,0,3.348-0.312,4.891-0.933
	c1.541-0.623,2.903-1.514,4.092-2.669c1.185-1.157,2.118-2.52,2.8-4.09C154.343,431.497,154.685,429.762,154.685,427.863z"/>
<path fill="#715D26" d="M340.885,416.997c3.025-0.368,6.023-0.076,8.985,0.875c2.963,0.95,5.63,2.355,8.001,4.208
	c2.369,1.858,4.369,4.111,6.006,6.757c1.633,2.65,2.635,5.486,3.004,8.513c0.154,1.263-0.184,2.44-1.011,3.531
	c-0.828,1.093-1.971,1.696-3.428,1.81l-31.783,3.868c2.226,3.055,4.641,5.133,7.238,6.221c2.593,1.094,5.093,1.492,7.489,1.2
	c1.324-0.161,2.439-0.456,3.345-0.886c0.909-0.432,1.078-0.392,1.694-0.812c1.974-1.352,4.315-1.838,5.695,1.161
	c0.817,1.78,2.29,4.972,2.218,5.172c0,0-1.756,1.481-5.399,2.988c-2.01,0.831-4.183,1.404-6.51,1.754
	c-3.074,0.501-6.089,0.309-9.045-0.581c-2.954-0.887-5.621-2.275-7.992-4.163c-2.376-1.885-4.349-4.173-5.923-6.86
	c-1.575-2.689-2.555-5.608-2.939-8.762c-0.368-3.027-0.108-6.017,0.78-8.974c0.888-2.953,2.273-5.619,4.161-7.994
	c1.888-2.371,4.139-4.375,6.757-6.004C334.847,418.388,337.731,417.381,340.885,416.997z M356.704,433.405
	c-1.821-2.337-4.009-4.168-6.571-5.487c-2.559-1.318-5.259-1.808-8.096-1.463c-2.965,0.361-5.53,1.506-7.693,3.434
	c-2.167,1.929-3.764,4.17-4.798,6.727c-0.112,0.14-0.157,0.276-0.142,0.401l27.43-3.339c-0.064,0.008-0.099-0.019-0.107-0.084
	L356.704,433.405z"/>
<path fill="#F0C419" d="M272.153,478.147l0.468-69.882c0,0,0.089-13.094,12.564-18.492c4.176-1.807,7.097-1.833,11.16-2.764
	c0,0,9.161-1.393,8.748-11.009c0,0,6.433,5.413,6.965,9.979c0.843,7.262-5.159,8.344-4.295,8.227c0,0-3.248,1.516-9.478,1.651
	c-2.942,0.063-7.314-0.139-10.39,2.579c-4.28,3.782-5.594,7.269-6.85,12.464c0,0-2.504,10.726,3.247,18.972
	c0,0,3.546,5.485,7.828,5.949c0,0,6.395,1.27,11.058-5.043c0,0,3.127-3.267,3.228-11.573c0,0-0.068-5.888-3.066-9.972
	c0,0-1.009-1.807-3.969-3.854l1.615-3.624c0,0,2.552-4.88,6.451-2.259c1.385,0.931,2.465,2.427,3.375,4.258
	c0,0,4.087,7.441,4.135,15.456c0,0,0.182,7.345-2.447,13.428c0,0-2.19,5.878-6.176,9.21c0,0-3.125,3.2-7.807,4.453
	c0,0-4.364,1.371-9.549-0.322c0,0-3.516-1.108-7.033-3.589l0.013,31.205c0,0,0.245,4.205-4.267,4.551H272.153z"/>
<path fill="#F0C419" d="M268.967,451.306l-0.587-34.181c0,0-0.124-11.383-17.32-16.074c-5.757-1.571-9.785-1.594-15.386-2.403
	c0,0-12.629-1.211-12.059-9.57c0,0-8.87,4.705-9.602,8.675c-1.163,6.313,7.111,7.252,5.92,7.15c0,0,4.48,1.319,13.066,1.436
	c4.056,0.056,10.084-0.121,14.323,2.241c5.903,3.289,7.713,6.32,9.444,10.835c0,0,3.453,9.322-4.475,16.492
	c0,0-4.89,4.766-10.794,5.171c0,0-8.813,1.103-15.244-4.384c0,0-4.31-2.838-4.449-10.059c0,0,0.092-5.119,4.225-8.67
	c0,0,1.393-1.57,5.473-3.349l-2.226-3.15c0,0-3.519-4.241-8.894-1.963c-1.91,0.809-3.397,2.108-4.653,3.699
	c0,0-5.632,6.469-5.7,13.434c0,0-0.248,6.386,3.371,11.674c0,0,3.022,5.11,8.516,8.005c0,0,4.31,2.781,10.765,3.869
	c0,0,6.016,1.192,13.162-0.278c0,0,4.849-0.964,9.696-3.121l-0.074,0.564c0,0-0.339,3.656,5.883,3.955H268.967z"/>
<path fill="#F0C419" d="M80.24,433.748h9.071c0.345,2.593,1.339,4.407,2.981,5.443c1.727,1.212,4.103,1.814,7.127,1.814
	c2.677,0,4.708-0.473,6.092-1.424c1.38-0.95,2.072-2.332,2.072-4.147c0-2.764-3.887-5.01-11.662-6.739l-0.259-0.129l-1.037-0.259
	c-4.406-0.949-7.344-1.944-8.813-2.98c-1.729-0.949-2.938-2.332-3.628-4.147c-0.864-1.556-1.297-3.542-1.297-5.96
	c0-4.233,1.468-7.56,4.407-9.98c2.935-2.331,7.212-3.498,12.829-3.498c5.269,0,9.331,1.21,12.183,3.627
	c2.936,2.679,4.491,6.179,4.665,10.497h-5.185c-1.988,0-3.413-0.905-4.275-2.722c-0.434-0.861-1.038-1.596-1.815-2.203
	c-1.555-1.12-3.672-1.685-6.35-1.685c-2.591,0-4.45,0.477-5.572,1.428c-1.295,0.951-1.943,2.289-1.943,4.016
	c0,2.332,2.504,4.063,7.516,5.184c1.468,0.435,2.548,0.692,3.241,0.778c1.554,0.518,2.915,0.928,4.082,1.23
	c1.167,0.305,2.093,0.54,2.786,0.712c1.209,0.52,2.418,1.039,3.628,1.556c1.729,1.036,3.067,2.379,4.018,4.017
	c0.951,1.815,1.426,3.804,1.426,5.962c0,4.665-1.555,8.294-4.665,10.886c-3.11,2.42-7.517,3.629-13.218,3.629
	c-5.876,0-10.283-1.253-13.218-3.76C82.227,442.389,80.499,438.673,80.24,433.748z"/>
<path fill="#F0C419" d="M205.841,401.817v26.955c0,8.178-2.029,13.533-6.079,16.066c-4.052,2.536-8.489,3.8-13.308,3.8
	c-4.711-0.23-9.009-1.612-12.895-4.146c-3.89-2.532-5.833-7.776-5.833-15.721v-26.955h11.501v29.372c0,2.766,0.764,4.78,2.3,6.047
	c1.532,1.268,3.286,1.9,5.258,1.9c1.969,0,3.749-0.632,5.338-1.9c1.586-1.267,2.383-3.281,2.383-6.047v-23.498
	c0-1.611,0.518-2.993,1.559-4.145c1.04-1.149,2.383-1.729,4.025-1.729H205.841z"/>
<path fill="#F0C419" d="M139.383,401.74c2.905,0,5.991,0.777,8.452,1.66c1.817,0.652,4.363,2.284,6.167,3.825
	c4.701,4.015,6.823,9.32,7.376,15.036c0.307,3.179,0.154,2.884,0.154,5.788v41.7c0,0-0.376,0-3.912,0
	c-6.851,0.464-6.189-4.131-6.189-4.131V441.35c-4.804,2.431-8.819,3.563-12.553,3.563c-3.026,0-5.858-0.562-8.496-1.691
	c-2.638-1.124-4.921-2.666-6.849-4.625c-1.927-1.958-3.439-4.239-4.536-6.848c-1.098-2.61-1.646-5.395-1.646-8.361
	c0-2.965,0.579-5.75,1.733-8.36c1.158-2.609,2.714-4.893,4.671-6.849c1.957-1.957,4.238-3.499,6.849-4.625
	C133.213,402.429,136.477,401.74,139.383,401.74z M151.685,423.388c0-1.718-0.325-3.35-0.978-4.891
	c-0.654-1.541-1.557-2.89-2.712-4.047c-1.157-1.156-2.508-2.075-4.048-2.757c-1.542-0.682-3.232-1.024-5.068-1.024
	c-1.722,0-3.352,0.327-4.893,0.979c-1.543,0.653-2.891,1.556-4.048,2.714c-1.155,1.154-2.075,2.504-2.757,4.045
	c-0.682,1.543-1.023,3.203-1.023,4.982c0,1.778,0.325,3.44,0.979,4.982c0.653,1.542,1.542,2.904,2.668,4.088
	c1.127,1.189,2.476,2.123,4.048,2.803c1.57,0.683,3.246,1.024,5.026,1.024c1.717,0,3.348-0.312,4.891-0.933
	c1.541-0.623,2.903-1.514,4.092-2.669c1.185-1.157,2.118-2.52,2.8-4.09C151.343,427.022,151.685,425.287,151.685,423.388z"/>
<path fill="#F0C419" d="M337.885,412.522c3.025-0.368,6.023-0.076,8.985,0.875c2.963,0.95,5.63,2.355,8.001,4.208
	c2.369,1.858,4.369,4.111,6.006,6.757c1.633,2.65,2.635,5.486,3.004,8.513c0.154,1.263-0.184,2.44-1.011,3.531
	c-0.828,1.093-1.971,1.696-3.428,1.81l-31.783,3.868c2.226,3.055,4.641,5.133,7.238,6.221c2.593,1.094,5.093,1.492,7.489,1.2
	c1.324-0.161,2.439-0.456,3.345-0.886c0.909-0.432,1.078-0.392,1.694-0.812c1.974-1.352,4.315-1.838,5.695,1.161
	c0.817,1.78,2.29,4.972,2.218,5.172c0,0-1.756,1.481-5.399,2.988c-2.01,0.831-4.183,1.404-6.51,1.754
	c-3.074,0.501-6.089,0.309-9.045-0.581c-2.954-0.887-5.621-2.275-7.992-4.163c-2.376-1.885-4.349-4.173-5.923-6.86
	c-1.575-2.689-2.555-5.608-2.939-8.762c-0.368-3.027-0.108-6.017,0.78-8.974c0.888-2.953,2.273-5.619,4.161-7.994
	c1.888-2.371,4.139-4.375,6.757-6.004C331.847,413.914,334.731,412.906,337.885,412.522z M353.704,428.931
	c-1.821-2.337-4.009-4.168-6.571-5.487c-2.559-1.318-5.259-1.808-8.096-1.463c-2.965,0.361-5.53,1.506-7.693,3.434
	c-2.167,1.929-3.764,4.17-4.798,6.727c-0.112,0.14-0.157,0.276-0.142,0.401l27.43-3.339c-0.064,0.008-0.099-0.019-0.107-0.084
	L353.704,428.931z"/>
<path fill="#F8971D" d="M-272.394,251.103l0.468-69.882c0,0,0.089-13.094,12.564-18.492c4.176-1.807,7.097-1.833,11.16-2.764
	c0,0,9.161-1.393,8.748-11.009c0,0,6.433,5.413,6.965,9.98c0.843,7.262-5.159,8.344-4.295,8.227c0,0-3.248,1.516-9.478,1.651
	c-2.942,0.063-7.314-0.139-10.39,2.579c-4.28,3.782-5.594,7.269-6.85,12.464c0,0-2.504,10.726,3.247,18.972
	c0,0,3.546,5.485,7.828,5.949c0,0,6.395,1.27,11.058-5.042c0,0,3.127-3.267,3.228-11.573c0,0-0.068-5.888-3.066-9.972
	c0,0-1.009-1.807-3.969-3.854l1.615-3.625c0,0,2.552-4.88,6.451-2.259c1.385,0.931,2.465,2.427,3.375,4.258
	c0,0,4.087,7.441,4.135,15.456c0,0,0.182,7.345-2.447,13.428c0,0-2.19,5.878-6.176,9.21c0,0-3.125,3.2-7.807,4.453
	c0,0-4.364,1.371-9.549-0.322c0,0-3.516-1.108-7.033-3.589l0.013,31.205c0,0,0.245,4.205-4.267,4.551H-272.394z"/>
<path fill="#F8971D" d="M-275.581,224.263l-0.587-34.181c0,0-0.124-11.383-17.32-16.074c-5.757-1.571-9.785-1.594-15.386-2.403
	c0,0-12.629-1.211-12.06-9.57c0,0-8.87,4.705-9.602,8.675c-1.163,6.313,7.111,7.252,5.92,7.15c0,0,4.479,1.319,13.066,1.436
	c4.056,0.056,10.085-0.121,14.323,2.241c5.903,3.288,7.713,6.32,9.444,10.835c0,0,3.453,9.322-4.475,16.492
	c0,0-4.89,4.766-10.794,5.171c0,0-8.813,1.103-15.244-4.384c0,0-4.31-2.838-4.449-10.059c0,0,0.092-5.119,4.225-8.67
	c0,0,1.393-1.57,5.473-3.349l-2.226-3.15c0,0-3.519-4.241-8.894-1.963c-1.91,0.809-3.397,2.108-4.653,3.699
	c0,0-5.632,6.469-5.7,13.434c0,0-0.248,6.386,3.371,11.674c0,0,3.022,5.11,8.516,8.005c0,0,4.31,2.781,10.765,3.869
	c0,0,6.016,1.192,13.162-0.278c0,0,4.849-0.964,9.696-3.121l-0.074,0.563c0,0-0.339,3.656,5.883,3.955H-275.581z"/>
<path fill="#F8971D" d="M-464.307,206.704h9.071c0.345,2.593,1.339,4.407,2.981,5.443c1.727,1.212,4.103,1.813,7.127,1.813
	c2.677,0,4.708-0.473,6.092-1.424c1.38-0.95,2.072-2.332,2.072-4.146c0-2.764-3.887-5.01-11.662-6.739l-0.259-0.129l-1.037-0.259
	c-4.406-0.949-7.344-1.944-8.813-2.98c-1.729-0.949-2.938-2.332-3.628-4.147c-0.864-1.556-1.297-3.542-1.297-5.96
	c0-4.233,1.468-7.56,4.407-9.98c2.935-2.331,7.212-3.498,12.829-3.498c5.269,0,9.331,1.21,12.183,3.627
	c2.936,2.679,4.491,6.179,4.665,10.497h-5.185c-1.988,0-3.413-0.905-4.275-2.722c-0.435-0.861-1.038-1.596-1.815-2.203
	c-1.555-1.12-3.672-1.685-6.35-1.685c-2.591,0-4.45,0.477-5.572,1.428c-1.295,0.951-1.943,2.289-1.943,4.016
	c0,2.332,2.504,4.063,7.516,5.184c1.468,0.435,2.548,0.692,3.241,0.778c1.554,0.518,2.915,0.928,4.082,1.23
	c1.167,0.305,2.093,0.54,2.786,0.712c1.209,0.52,2.418,1.039,3.628,1.556c1.728,1.036,3.067,2.379,4.018,4.017
	c0.951,1.815,1.426,3.804,1.426,5.962c0,4.665-1.555,8.294-4.665,10.886c-3.11,2.42-7.517,3.629-13.218,3.629
	c-5.876,0-10.283-1.253-13.218-3.76C-462.32,215.346-464.048,211.63-464.307,206.704z"/>
<path fill="#F8971D" d="M-338.707,174.774v26.955c0,8.178-2.029,13.533-6.079,16.066c-4.052,2.536-8.489,3.8-13.308,3.8
	c-4.711-0.23-9.009-1.612-12.896-4.146c-3.89-2.532-5.833-7.776-5.833-15.721v-26.955h11.501v29.372c0,2.766,0.764,4.78,2.3,6.047
	c1.532,1.268,3.286,1.9,5.258,1.9c1.969,0,3.75-0.632,5.338-1.9c1.586-1.267,2.383-3.281,2.383-6.047v-23.498
	c0-1.611,0.518-2.993,1.559-4.145c1.04-1.149,2.383-1.729,4.025-1.729H-338.707z"/>
<path fill="#F8971D" d="M-405.164,174.697c2.905,0,5.991,0.777,8.452,1.66c1.817,0.652,4.363,2.284,6.167,3.825
	c4.701,4.015,6.831,9.32,7.383,15.036c0.307,3.179,0.162,2.884,0.162,5.788V243c0,0-0.391,0-3.927,0
	c-6.851,0-6.073-4.425-6.073-4.425v-24.268c-5,2.431-8.877,3.563-12.611,3.563c-3.026,0-5.887-0.562-8.525-1.691
	c-2.638-1.124-4.936-2.666-6.863-4.624c-1.927-1.958-3.447-4.239-4.543-6.848c-1.098-2.61-1.65-5.395-1.65-8.361
	c0-2.965,0.577-5.75,1.732-8.36c1.158-2.609,2.713-4.893,4.67-6.849c1.957-1.956,4.238-3.499,6.848-4.625
	C-411.333,175.386-408.071,174.697-405.164,174.697z M-392.863,196.345c0-1.718-0.325-3.35-0.978-4.891
	c-0.654-1.541-1.557-2.89-2.712-4.047c-1.157-1.156-2.508-2.075-4.048-2.757c-1.542-0.682-3.232-1.024-5.068-1.024
	c-1.722,0-3.352,0.327-4.893,0.979c-1.543,0.653-2.891,1.556-4.048,2.714c-1.155,1.154-2.075,2.504-2.757,4.045
	c-0.682,1.544-1.023,3.203-1.023,4.982c0,1.778,0.325,3.44,0.978,4.982c0.653,1.542,1.543,2.904,2.668,4.088
	c1.127,1.189,2.476,2.124,4.048,2.803c1.57,0.683,3.246,1.024,5.026,1.024c1.717,0,3.348-0.312,4.891-0.933
	c1.541-0.623,2.903-1.514,4.092-2.669c1.185-1.157,2.118-2.52,2.8-4.09C-393.204,199.979-392.863,198.244-392.863,196.345z"/>
<path fill="#F8971D" d="M-206.662,185.479c3.025-0.368,6.023-0.076,8.985,0.875c2.963,0.95,5.63,2.355,8.001,4.208
	c2.369,1.858,4.369,4.111,6.006,6.757c1.633,2.65,2.635,5.486,3.004,8.513c0.154,1.263-0.184,2.44-1.011,3.531
	c-0.828,1.093-1.971,1.696-3.428,1.81l-31.783,3.868c2.226,3.055,4.641,5.133,7.238,6.221c2.593,1.094,5.093,1.492,7.489,1.2
	c1.324-0.161,2.439-0.456,3.345-0.886c0.909-0.432,1.078-0.392,1.694-0.812c1.974-1.352,4.315-1.838,5.695,1.161
	c0.817,1.78,2.29,4.972,2.218,5.172c0,0-1.756,1.481-5.399,2.988c-2.01,0.831-4.183,1.404-6.51,1.754
	c-3.074,0.501-6.089,0.309-9.045-0.581c-2.954-0.887-5.621-2.275-7.992-4.163c-2.376-1.885-4.348-4.173-5.923-6.86
	c-1.575-2.689-2.555-5.608-2.939-8.762c-0.368-3.027-0.108-6.017,0.78-8.974c0.888-2.953,2.273-5.619,4.161-7.994
	c1.888-2.371,4.139-4.375,6.757-6.004C-212.7,186.87-209.816,185.862-206.662,185.479z M-190.843,201.887
	c-1.821-2.337-4.009-4.168-6.571-5.487c-2.559-1.318-5.259-1.808-8.096-1.463c-2.965,0.361-5.529,1.506-7.693,3.434
	c-2.167,1.929-3.764,4.17-4.798,6.727c-0.112,0.14-0.157,0.276-0.142,0.401l27.43-3.339c-0.064,0.008-0.099-0.019-0.107-0.084
	L-190.843,201.887z"/>
<path fill="#784B1E" d="M-284.448,103.402l0.468-69.882c0,0,0.089-13.094,12.564-18.492c4.176-1.807,7.097-1.833,11.16-2.764
	c0,0,9.161-1.393,8.748-11.009c0,0,6.433,5.413,6.965,9.979c0.843,7.262-5.159,8.344-4.295,8.227c0,0-3.248,1.516-9.478,1.651
	c-2.942,0.063-7.314-0.139-10.39,2.579c-4.28,3.782-5.594,7.269-6.85,12.464c0,0-2.504,10.726,3.247,18.972
	c0,0,3.546,5.485,7.828,5.949c0,0,6.395,1.269,11.058-5.042c0,0,3.127-3.267,3.228-11.573c0,0-0.068-5.888-3.066-9.972
	c0,0-1.009-1.807-3.969-3.853l1.615-3.625c0,0,2.552-4.88,6.451-2.259c1.385,0.931,2.465,2.427,3.375,4.258
	c0,0,4.087,7.441,4.135,15.455c0,0,0.182,7.345-2.447,13.428c0,0-2.19,5.878-6.176,9.21c0,0-3.125,3.2-7.807,4.453
	c0,0-4.364,1.371-9.549-0.322c0,0-3.516-1.108-7.033-3.589l0.013,31.205c0,0,0.245,4.205-4.268,4.551H-284.448z"/>
<path fill="#784B1E" d="M-287.634,76.561l-0.587-34.181c0,0-0.124-11.383-17.32-16.074c-5.757-1.571-9.785-1.594-15.386-2.403
	c0,0-12.629-1.211-12.06-9.57c0,0-8.87,4.705-9.602,8.675c-1.163,6.313,7.111,7.252,5.92,7.15c0,0,4.479,1.319,13.066,1.436
	c4.056,0.056,10.084-0.121,14.323,2.241c5.903,3.288,7.713,6.32,9.444,10.835c0,0,3.453,9.322-4.475,16.492
	c0,0-4.89,4.766-10.794,5.171c0,0-8.813,1.103-15.244-4.384c0,0-4.31-2.838-4.449-10.059c0,0,0.092-5.119,4.225-8.67
	c0,0,1.393-1.57,5.473-3.349l-2.226-3.15c0,0-3.519-4.241-8.894-1.963c-1.91,0.809-3.397,2.108-4.653,3.699
	c0,0-5.632,6.469-5.7,13.434c0,0-0.248,6.386,3.371,11.674c0,0,3.022,5.11,8.516,8.005c0,0,4.31,2.781,10.765,3.869
	c0,0,6.016,1.192,13.162-0.278c0,0,4.849-0.964,9.696-3.121l-0.074,0.563c0,0-0.339,3.656,5.883,3.955H-287.634z"/>
<path fill="#784B1E" d="M-476.361,59.003h9.071c0.345,2.593,1.339,4.407,2.981,5.443c1.727,1.212,4.103,1.813,7.127,1.813
	c2.677,0,4.708-0.473,6.092-1.424c1.38-0.95,2.072-2.332,2.072-4.146c0-2.764-3.887-5.01-11.662-6.739l-0.259-0.129l-1.037-0.259
	c-4.406-0.949-7.344-1.944-8.813-2.98c-1.729-0.949-2.938-2.333-3.628-4.147c-0.864-1.556-1.297-3.542-1.297-5.96
	c0-4.233,1.468-7.56,4.407-9.98c2.935-2.331,7.212-3.498,12.829-3.498c5.269,0,9.331,1.21,12.183,3.627
	c2.936,2.679,4.491,6.179,4.665,10.497h-5.185c-1.988,0-3.413-0.905-4.275-2.722c-0.435-0.861-1.038-1.596-1.815-2.203
	c-1.555-1.12-3.672-1.685-6.35-1.685c-2.591,0-4.45,0.477-5.572,1.428c-1.295,0.951-1.943,2.289-1.943,4.016
	c0,2.332,2.504,4.063,7.516,5.184c1.468,0.435,2.548,0.692,3.241,0.778c1.554,0.518,2.915,0.928,4.082,1.23
	c1.167,0.305,2.093,0.54,2.786,0.712c1.209,0.52,2.418,1.039,3.628,1.556c1.729,1.036,3.067,2.379,4.018,4.017
	c0.951,1.815,1.426,3.804,1.426,5.962c0,4.665-1.555,8.294-4.665,10.886c-3.11,2.42-7.517,3.629-13.218,3.629
	c-5.876,0-10.283-1.253-13.218-3.76C-474.374,67.644-476.102,63.928-476.361,59.003z"/>
<path fill="#784B1E" d="M-350.76,27.073v26.955c0,8.178-2.029,13.533-6.079,16.066c-4.052,2.536-8.489,3.8-13.308,3.8
	c-4.711-0.23-9.009-1.612-12.895-4.146c-3.89-2.532-5.834-7.776-5.834-15.721V27.073h11.501v29.372c0,2.766,0.764,4.78,2.3,6.047
	c1.532,1.268,3.286,1.9,5.258,1.9c1.969,0,3.75-0.632,5.338-1.9c1.586-1.267,2.383-3.281,2.383-6.047V32.947
	c0-1.611,0.518-2.993,1.559-4.145c1.04-1.149,2.383-1.729,4.025-1.729H-350.76z"/>
<path fill="#784B1E" d="M-417.218,26.995c2.905,0,5.991,0.777,8.452,1.66c1.817,0.652,4.363,2.284,6.167,3.825
	c4.701,4.015,6.823,9.32,7.376,15.036c0.307,3.179,0.154,2.884,0.154,5.788v41.7c0,0-0.375,0-3.912,0
	c-6.851,0.464-6.188-4.131-6.188-4.131V66.605c-4.804,2.431-8.819,3.563-12.553,3.563c-3.026,0-5.858-0.562-8.496-1.691
	c-2.638-1.124-4.921-2.666-6.849-4.625c-1.927-1.958-3.44-4.239-4.536-6.848c-1.098-2.61-1.646-5.395-1.646-8.361
	c0-2.965,0.579-5.75,1.733-8.36c1.158-2.609,2.714-4.893,4.671-6.849c1.957-1.957,4.238-3.499,6.849-4.625
	C-423.388,27.684-420.124,26.995-417.218,26.995z M-404.916,48.643c0-1.718-0.325-3.35-0.978-4.891
	c-0.654-1.541-1.557-2.89-2.712-4.047c-1.157-1.156-2.508-2.075-4.048-2.757c-1.542-0.682-3.232-1.024-5.068-1.024
	c-1.722,0-3.352,0.327-4.893,0.979c-1.543,0.653-2.891,1.556-4.048,2.714c-1.155,1.154-2.075,2.504-2.757,4.045
	c-0.682,1.543-1.023,3.203-1.023,4.981c0,1.778,0.325,3.44,0.978,4.982c0.653,1.542,1.543,2.904,2.668,4.088
	c1.127,1.189,2.476,2.124,4.048,2.803c1.57,0.683,3.246,1.024,5.026,1.024c1.717,0,3.348-0.312,4.891-0.933
	c1.541-0.623,2.903-1.514,4.092-2.669c1.185-1.157,2.118-2.52,2.8-4.09C-405.258,52.277-404.916,50.542-404.916,48.643z"/>
<path fill="#784B1E" d="M-218.716,37.777c3.025-0.368,6.023-0.076,8.985,0.875c2.963,0.95,5.63,2.355,8.001,4.208
	c2.369,1.858,4.369,4.111,6.006,6.757c1.633,2.65,2.635,5.486,3.004,8.513c0.154,1.263-0.184,2.44-1.01,3.531
	c-0.828,1.093-1.971,1.696-3.428,1.81l-31.783,3.868c2.226,3.055,4.641,5.133,7.238,6.221c2.593,1.094,5.093,1.492,7.489,1.2
	c1.324-0.161,2.439-0.456,3.345-0.886c0.909-0.432,1.078-0.392,1.694-0.812c1.974-1.352,4.315-1.838,5.695,1.161
	c0.817,1.78,2.29,4.972,2.218,5.172c0,0-1.756,1.481-5.399,2.988c-2.01,0.831-4.183,1.404-6.51,1.754
	c-3.074,0.501-6.089,0.309-9.045-0.581c-2.954-0.887-5.621-2.275-7.992-4.163c-2.376-1.885-4.348-4.173-5.923-6.86
	c-1.575-2.689-2.555-5.608-2.939-8.762c-0.368-3.027-0.108-6.017,0.78-8.974c0.888-2.953,2.273-5.619,4.161-7.994
	c1.888-2.371,4.139-4.375,6.757-6.004C-224.754,39.169-221.87,38.161-218.716,37.777z M-202.897,54.186
	c-1.821-2.337-4.009-4.168-6.571-5.487c-2.559-1.318-5.259-1.808-8.096-1.463c-2.965,0.361-5.529,1.506-7.693,3.434
	c-2.167,1.929-3.764,4.17-4.798,6.727c-0.112,0.14-0.157,0.276-0.142,0.401l27.43-3.339c-0.064,0.008-0.099-0.019-0.107-0.084
	L-202.897,54.186z"/>
<path fill="#F8971D" d="M-284.448,98.521l0.468-69.882c0,0,0.089-13.094,12.564-18.492c4.176-1.807,7.097-1.833,11.16-2.764
	c0,0,9.161-1.393,8.748-11.009c0,0,6.433,5.413,6.965,9.979c0.843,7.262-5.159,8.344-4.295,8.227c0,0-3.248,1.516-9.478,1.651
	c-2.942,0.063-7.314-0.139-10.39,2.579c-4.28,3.782-5.594,7.269-6.85,12.464c0,0-2.504,10.726,3.247,18.972
	c0,0,3.546,5.485,7.828,5.949c0,0,6.395,1.269,11.058-5.042c0,0,3.127-3.267,3.228-11.573c0,0-0.068-5.888-3.066-9.972
	c0,0-1.009-1.807-3.969-3.853l1.615-3.625c0,0,2.552-4.88,6.451-2.259c1.385,0.931,2.465,2.427,3.375,4.258
	c0,0,4.087,7.441,4.135,15.455c0,0,0.182,7.345-2.447,13.428c0,0-2.19,5.878-6.176,9.21c0,0-3.125,3.2-7.807,4.453
	c0,0-4.364,1.371-9.549-0.322c0,0-3.516-1.108-7.033-3.589l0.013,31.205c0,0,0.245,4.205-4.268,4.551H-284.448z"/>
<path fill="#F8971D" d="M-287.634,71.681l-0.587-34.181c0,0-0.124-11.383-17.32-16.074c-5.757-1.571-9.785-1.594-15.386-2.403
	c0,0-12.629-1.211-12.06-9.57c0,0-8.87,4.705-9.602,8.675c-1.163,6.313,7.111,7.252,5.92,7.15c0,0,4.479,1.319,13.066,1.436
	c4.056,0.056,10.084-0.121,14.323,2.241c5.903,3.288,7.713,6.32,9.444,10.835c0,0,3.453,9.322-4.475,16.492
	c0,0-4.89,4.766-10.794,5.171c0,0-8.813,1.103-15.244-4.384c0,0-4.31-2.838-4.449-10.059c0,0,0.092-5.119,4.225-8.67
	c0,0,1.393-1.57,5.473-3.349l-2.226-3.15c0,0-3.519-4.241-8.894-1.963c-1.91,0.809-3.397,2.108-4.653,3.699
	c0,0-5.632,6.469-5.7,13.434c0,0-0.248,6.386,3.371,11.674c0,0,3.022,5.11,8.516,8.005c0,0,4.31,2.781,10.765,3.869
	c0,0,6.016,1.192,13.162-0.278c0,0,4.849-0.964,9.696-3.121l-0.074,0.563c0,0-0.339,3.656,5.883,3.955H-287.634z"/>
<path fill="#F8971D" d="M-476.361,54.122h9.071c0.345,2.593,1.339,4.407,2.981,5.443c1.727,1.212,4.103,1.813,7.127,1.813
	c2.677,0,4.708-0.473,6.092-1.424c1.38-0.95,2.072-2.332,2.072-4.146c0-2.764-3.887-5.01-11.662-6.739l-0.259-0.129l-1.037-0.259
	c-4.406-0.949-7.344-1.944-8.813-2.98c-1.729-0.949-2.938-2.333-3.628-4.147c-0.864-1.556-1.297-3.542-1.297-5.96
	c0-4.233,1.468-7.56,4.407-9.98c2.935-2.331,7.212-3.498,12.829-3.498c5.269,0,9.331,1.21,12.183,3.627
	c2.936,2.679,4.491,6.179,4.665,10.497h-5.185c-1.988,0-3.413-0.905-4.275-2.722c-0.435-0.861-1.038-1.596-1.815-2.203
	c-1.555-1.12-3.672-1.685-6.35-1.685c-2.591,0-4.45,0.477-5.572,1.428c-1.295,0.951-1.943,2.289-1.943,4.016
	c0,2.332,2.504,4.063,7.516,5.184c1.468,0.435,2.548,0.692,3.241,0.778c1.554,0.518,2.915,0.928,4.082,1.23
	c1.167,0.305,2.093,0.54,2.786,0.712c1.209,0.52,2.418,1.039,3.628,1.556c1.729,1.036,3.067,2.379,4.018,4.017
	c0.951,1.815,1.426,3.804,1.426,5.962c0,4.665-1.555,8.294-4.665,10.886c-3.11,2.42-7.517,3.629-13.218,3.629
	c-5.876,0-10.283-1.253-13.218-3.76C-474.374,62.764-476.102,59.048-476.361,54.122z"/>
<path fill="#F8971D" d="M-350.76,22.192v26.955c0,8.178-2.029,13.533-6.079,16.066c-4.052,2.536-8.489,3.8-13.308,3.8
	c-4.711-0.23-9.009-1.612-12.895-4.146c-3.89-2.532-5.834-7.776-5.834-15.721V22.192h11.501v29.372c0,2.766,0.764,4.78,2.3,6.047
	c1.532,1.268,3.286,1.9,5.258,1.9c1.969,0,3.75-0.632,5.338-1.9c1.586-1.267,2.383-3.281,2.383-6.047V28.066
	c0-1.611,0.518-2.993,1.559-4.145c1.04-1.149,2.383-1.729,4.025-1.729H-350.76z"/>
<path fill="#F8971D" d="M-417.218,22.115c2.905,0,5.991,0.777,8.452,1.66c1.817,0.652,4.363,2.284,6.167,3.825
	c4.701,4.015,6.823,9.32,7.376,15.036c0.307,3.179,0.154,2.884,0.154,5.788v41.7c0,0-0.375,0-3.912,0
	c-6.851,0.464-6.188-4.131-6.188-4.131V61.725c-4.804,2.431-8.819,3.563-12.553,3.563c-3.026,0-5.858-0.562-8.496-1.691
	c-2.638-1.124-4.921-2.666-6.849-4.625c-1.927-1.958-3.44-4.239-4.536-6.848c-1.098-2.61-1.646-5.395-1.646-8.361
	c0-2.965,0.579-5.75,1.733-8.36c1.158-2.609,2.714-4.893,4.671-6.849c1.957-1.957,4.238-3.499,6.849-4.625
	C-423.388,22.804-420.124,22.115-417.218,22.115z M-404.916,43.763c0-1.718-0.325-3.35-0.978-4.891
	c-0.654-1.541-1.557-2.89-2.712-4.047c-1.157-1.156-2.508-2.075-4.048-2.757c-1.542-0.682-3.232-1.024-5.068-1.024
	c-1.722,0-3.352,0.327-4.893,0.979c-1.543,0.653-2.891,1.556-4.048,2.714c-1.155,1.154-2.075,2.504-2.757,4.045
	c-0.682,1.543-1.023,3.203-1.023,4.981c0,1.778,0.325,3.44,0.978,4.982c0.653,1.542,1.543,2.904,2.668,4.088
	c1.127,1.189,2.476,2.124,4.048,2.803c1.57,0.683,3.246,1.024,5.026,1.024c1.717,0,3.348-0.312,4.891-0.933
	c1.541-0.623,2.903-1.514,4.092-2.669c1.185-1.157,2.118-2.52,2.8-4.09C-405.258,47.397-404.916,45.662-404.916,43.763z"/>
<path fill="#F8971D" d="M-218.716,32.897c3.025-0.368,6.023-0.076,8.985,0.875c2.963,0.95,5.63,2.355,8.001,4.208
	c2.369,1.858,4.369,4.111,6.006,6.757c1.633,2.65,2.635,5.486,3.004,8.513c0.154,1.263-0.184,2.44-1.01,3.531
	c-0.828,1.093-1.971,1.696-3.428,1.81l-31.783,3.868c2.226,3.055,4.641,5.133,7.238,6.221c2.593,1.094,5.093,1.492,7.489,1.2
	c1.324-0.161,2.439-0.456,3.345-0.886c0.909-0.432,1.078-0.392,1.694-0.812c1.974-1.352,4.315-1.838,5.695,1.161
	c0.817,1.78,2.29,4.972,2.218,5.172c0,0-1.756,1.481-5.399,2.988c-2.01,0.831-4.183,1.404-6.51,1.754
	c-3.074,0.501-6.089,0.309-9.045-0.581c-2.954-0.887-5.621-2.275-7.992-4.163c-2.376-1.885-4.348-4.173-5.923-6.86
	c-1.575-2.689-2.555-5.608-2.939-8.762c-0.368-3.027-0.108-6.017,0.78-8.974c0.888-2.953,2.273-5.619,4.161-7.994
	c1.888-2.371,4.139-4.375,6.757-6.004C-224.754,34.288-221.87,33.28-218.716,32.897z M-202.897,49.305
	c-1.821-2.337-4.009-4.168-6.571-5.487c-2.559-1.318-5.259-1.808-8.096-1.463c-2.965,0.361-5.529,1.506-7.693,3.434
	c-2.167,1.929-3.764,4.17-4.798,6.727c-0.112,0.14-0.157,0.276-0.142,0.401l27.43-3.339c-0.064,0.008-0.099-0.019-0.107-0.084
	L-202.897,49.305z"/>
<path fill="#784B1E" d="M368.018,202.728l0.868-129.708c0,0,0.165-24.303,23.319-34.323c7.751-3.354,13.172-3.402,20.714-5.13
	c0,0,17.004-2.586,16.237-20.434c0,0,11.94,10.046,12.927,18.523c1.564,13.478-9.576,15.487-7.972,15.27
	c0,0-6.029,2.813-17.591,3.064c-5.461,0.117-13.576-0.258-19.284,4.787c-7.945,7.019-10.383,13.491-12.714,23.134
	c0,0-4.647,19.908,6.027,35.214c0,0,6.582,10.18,14.53,11.042c0,0,11.869,2.356,20.524-9.359c0,0,5.804-6.063,5.991-21.48
	c0,0-0.127-10.928-5.692-18.509c0,0-1.872-3.353-7.366-7.153l2.998-6.727c0,0,4.736-9.058,11.974-4.194
	c2.57,1.727,4.575,4.504,6.264,7.904c0,0,7.586,13.812,7.675,28.687c0,0,0.337,13.634-4.542,24.924c0,0-4.066,10.91-11.463,17.095
	c0,0-5.8,5.939-14.49,8.265c0,0-8.101,2.545-17.724-0.598c0,0-6.526-2.056-13.055-6.661l0.024,57.92c0,0,0.455,7.804-7.921,8.447
	H368.018z"/>
<path fill="#784B1E" d="M362.103,152.91l-1.09-63.443c0,0-0.23-21.128-32.147-29.835c-10.685-2.917-18.162-2.959-28.559-4.46
	c0,0-23.441-2.248-22.384-17.763c0,0-16.464,8.733-17.823,16.102c-2.159,11.718,13.199,13.46,10.988,13.271
	c0,0,8.314,2.448,24.253,2.665c7.529,0.103,18.718-0.224,26.585,4.16c10.957,6.104,14.317,11.731,17.529,20.111
	c0,0,6.409,17.303-8.306,30.611c0,0-9.076,8.845-20.035,9.598c0,0-16.358,2.047-28.294-8.137c0,0-8-5.267-8.257-18.67
	c0,0,0.171-9.501,7.842-16.092c0,0,2.585-2.914,10.159-6.216l-4.132-5.847c0,0-6.532-7.872-16.507-3.643
	c-3.545,1.501-6.306,3.912-8.637,6.866c0,0-10.453,12.007-10.58,24.935c0,0-0.46,11.853,6.257,21.668c0,0,5.609,9.485,15.806,14.859
	c0,0,8,5.161,19.98,7.181c0,0,11.167,2.213,24.429-0.516c0,0,9-1.79,17.997-5.792l-0.137,1.046c0,0-0.629,6.785,10.919,7.34H362.103
	z"/>
<path fill="#784B1E" d="M11.806,120.319h16.836c0.641,4.812,2.486,8.18,5.533,10.103c3.205,2.25,7.615,3.366,13.228,3.366
	c4.968,0,8.739-0.877,11.307-2.644c2.561-1.764,3.845-4.328,3.845-7.696c0-5.13-7.215-9.3-21.646-12.509l-0.481-0.24l-1.924-0.481
	c-8.177-1.762-13.632-3.609-16.358-5.532c-3.209-1.761-5.452-4.329-6.734-7.697c-1.603-2.887-2.407-6.573-2.407-11.063
	c0-7.857,2.725-14.031,8.18-18.524c5.448-4.326,13.387-6.492,23.812-6.492c9.779,0,17.32,2.245,22.612,6.732
	c5.449,4.972,8.335,11.469,8.659,19.484h-9.623c-3.69,0-6.335-1.679-7.936-5.052c-0.806-1.599-1.927-2.963-3.37-4.089
	c-2.887-2.078-6.815-3.127-11.786-3.127c-4.81,0-8.259,0.885-10.343,2.65c-2.404,1.765-3.607,4.249-3.607,7.454
	c0,4.328,4.648,7.542,13.95,9.622c2.724,0.808,4.729,1.284,6.015,1.444c2.885,0.961,5.411,1.723,7.577,2.284
	c2.165,0.566,3.885,1.002,5.171,1.321c2.244,0.964,4.489,1.928,6.734,2.888c3.208,1.923,5.692,4.415,7.457,7.456
	c1.765,3.37,2.646,7.06,2.646,11.066c0,8.659-2.886,15.395-8.659,20.206c-5.773,4.492-13.952,6.736-24.535,6.736
	c-10.907,0-19.086-2.326-24.534-6.978C15.494,136.359,12.287,129.462,11.806,120.319z"/>
<path fill="#784B1E" d="M244.934,61.054v50.032c0,15.179-3.766,25.118-11.283,29.82c-7.521,4.706-15.756,7.054-24.7,7.054
	c-8.744-0.427-16.722-2.993-23.935-7.694c-7.221-4.7-10.828-14.434-10.828-29.179V61.054h21.347v54.518
	c0,5.134,1.418,8.873,4.269,11.224c2.843,2.354,6.099,3.527,9.76,3.527c3.655,0,6.959-1.174,9.908-3.527
	c2.944-2.351,4.424-6.089,4.424-11.224V71.956c0-2.991,0.961-5.556,2.893-7.694c1.931-2.132,4.423-3.209,7.471-3.209H244.934z"/>
<path fill="#784B1E" d="M121.582,60.91c5.392,0,11.119,1.442,15.687,3.081c3.372,1.21,8.098,4.239,11.447,7.1
	c8.726,7.452,12.665,17.299,13.69,27.908c0.569,5.901,0.286,5.353,0.286,10.744v77.4c0,0-0.697,0-7.261,0
	c-12.715,0.862-11.487-7.668-11.487-7.668V134.43c-8.916,4.513-16.369,6.613-23.3,6.613c-5.616,0-10.874-1.043-15.769-3.138
	c-4.896-2.086-9.135-4.948-12.712-8.584c-3.576-3.634-6.384-7.868-8.42-12.711c-2.038-4.844-3.055-10.013-3.055-15.519
	c0-5.503,1.075-10.673,3.217-15.517c2.15-4.843,5.038-9.082,8.671-12.713c3.632-3.631,7.867-6.494,12.712-8.584
	C110.13,62.189,116.187,60.91,121.582,60.91z M144.415,101.091c0-3.189-0.603-6.218-1.815-9.078c-1.214-2.86-2.89-5.364-5.034-7.511
	c-2.148-2.146-4.655-3.851-7.514-5.117c-2.862-1.265-6-1.901-9.407-1.901c-3.196,0-6.222,0.606-9.081,1.816
	c-2.865,1.213-5.366,2.888-7.514,5.037c-2.144,2.142-3.852,4.648-5.117,7.508c-1.266,2.865-1.899,5.945-1.899,9.246
	c0,3.3,0.604,6.385,1.816,9.248c1.213,2.863,2.863,5.391,4.952,7.589c2.092,2.208,4.595,3.941,7.513,5.202
	c2.915,1.268,6.025,1.901,9.329,1.901c3.187,0,6.215-0.578,9.078-1.732c2.86-1.156,5.389-2.809,7.596-4.955
	c2.199-2.148,3.932-4.676,5.198-7.592C143.781,107.836,144.415,104.616,144.415,101.091z"/>
<path fill="#784B1E" d="M490.023,80.922c5.614-0.683,11.18-0.142,16.677,1.624c5.499,1.763,10.451,4.371,14.85,7.81
	c4.397,3.448,8.108,7.631,11.148,12.542c3.031,4.918,4.891,10.183,5.575,15.802c0.285,2.344-0.342,4.528-1.876,6.553
	c-1.537,2.029-3.658,3.149-6.362,3.36l-58.993,7.18c4.132,5.671,8.615,9.527,13.435,11.547c4.814,2.031,9.452,2.769,13.9,2.228
	c2.458-0.299,4.528-0.847,6.209-1.645c1.686-0.802,2-0.728,3.143-1.507c3.664-2.51,8.01-3.412,10.57,2.155
	c1.516,3.304,4.251,9.229,4.117,9.6c0,0-3.259,2.748-10.022,5.546c-3.731,1.543-7.765,2.607-12.082,3.256
	c-5.706,0.93-11.302,0.574-16.788-1.079c-5.483-1.646-10.433-4.222-14.834-7.727c-4.41-3.499-8.071-7.745-10.994-12.733
	c-2.923-4.991-4.742-10.409-5.454-16.264c-0.684-5.619-0.2-11.169,1.448-16.657c1.648-5.481,4.22-10.429,7.724-14.839
	c3.505-4.401,7.683-8.12,12.541-11.144C478.816,83.505,484.168,81.635,490.023,80.922z M519.385,111.379
	c-3.38-4.337-7.442-7.736-12.197-10.185c-4.75-2.447-9.761-3.357-15.028-2.716c-5.504,0.67-10.263,2.795-14.279,6.373
	c-4.021,3.581-6.986,7.741-8.905,12.486c-0.208,0.26-0.292,0.513-0.264,0.744l50.914-6.197c-0.119,0.014-0.183-0.035-0.198-0.157
	L519.385,111.379z"/>
<path fill="#F8971D" d="M368.018,193.67l0.868-129.708c0,0,0.165-24.303,23.319-34.323c7.751-3.354,13.172-3.402,20.714-5.13
	c0,0,17.004-2.586,16.237-20.434c0,0,11.94,10.046,12.927,18.523c1.564,13.478-9.576,15.487-7.972,15.27
	c0,0-6.029,2.813-17.591,3.064c-5.461,0.117-13.576-0.258-19.284,4.787c-7.945,7.019-10.383,13.491-12.714,23.134
	c0,0-4.647,19.908,6.027,35.214c0,0,6.582,10.18,14.53,11.042c0,0,11.869,2.356,20.524-9.359c0,0,5.804-6.063,5.991-21.48
	c0,0-0.127-10.928-5.692-18.509c0,0-1.872-3.353-7.366-7.153l2.998-6.727c0,0,4.736-9.058,11.974-4.194
	c2.57,1.727,4.575,4.504,6.264,7.904c0,0,7.586,13.812,7.675,28.687c0,0,0.337,13.634-4.542,24.924c0,0-4.066,10.91-11.463,17.095
	c0,0-5.8,5.939-14.49,8.265c0,0-8.101,2.545-17.724-0.598c0,0-6.526-2.056-13.055-6.661l0.024,57.92c0,0,0.455,7.804-7.921,8.447
	H368.018z"/>
<path fill="#F8971D" d="M362.103,143.851l-1.09-63.443c0,0-0.23-21.128-32.147-29.835c-10.685-2.917-18.162-2.959-28.559-4.46
	c0,0-23.441-2.248-22.384-17.763c0,0-16.464,8.733-17.823,16.102c-2.159,11.718,13.199,13.46,10.988,13.271
	c0,0,8.314,2.448,24.253,2.665c7.529,0.103,18.718-0.224,26.585,4.16c10.957,6.104,14.317,11.731,17.529,20.111
	c0,0,6.409,17.303-8.306,30.611c0,0-9.076,8.845-20.035,9.598c0,0-16.358,2.047-28.294-8.137c0,0-8-5.267-8.257-18.67
	c0,0,0.171-9.501,7.842-16.092c0,0,2.585-2.914,10.159-6.216l-4.132-5.847c0,0-6.532-7.872-16.507-3.643
	c-3.545,1.501-6.306,3.912-8.637,6.866c0,0-10.453,12.007-10.58,24.935c0,0-0.46,11.853,6.257,21.668c0,0,5.609,9.485,15.806,14.859
	c0,0,8,5.161,19.98,7.181c0,0,11.167,2.213,24.429-0.516c0,0,9-1.79,17.997-5.792l-0.137,1.046c0,0-0.629,6.785,10.919,7.34H362.103
	z"/>
<path fill="#F8971D" d="M11.806,111.26h16.836c0.641,4.812,2.486,8.18,5.533,10.103c3.205,2.25,7.615,3.366,13.228,3.366
	c4.968,0,8.739-0.877,11.307-2.644c2.561-1.764,3.845-4.328,3.845-7.696c0-5.13-7.215-9.3-21.646-12.509l-0.481-0.24l-1.924-0.481
	c-8.177-1.762-13.632-3.609-16.358-5.532c-3.209-1.761-5.452-4.329-6.734-7.697c-1.603-2.887-2.407-6.573-2.407-11.063
	c0-7.857,2.725-14.031,8.18-18.524c5.448-4.326,13.387-6.492,23.812-6.492c9.779,0,17.32,2.245,22.612,6.732
	c5.449,4.972,8.335,11.469,8.659,19.484h-9.623c-3.69,0-6.335-1.679-7.936-5.052c-0.806-1.599-1.927-2.963-3.37-4.089
	c-2.887-2.078-6.815-3.127-11.786-3.127c-4.81,0-8.259,0.885-10.343,2.65c-2.404,1.765-3.607,4.249-3.607,7.454
	c0,4.328,4.648,7.542,13.95,9.622c2.724,0.808,4.729,1.284,6.015,1.444c2.885,0.961,5.411,1.723,7.577,2.284
	c2.165,0.566,3.885,1.002,5.171,1.321c2.244,0.964,4.489,1.928,6.734,2.888c3.208,1.923,5.692,4.415,7.457,7.456
	c1.765,3.37,2.646,7.06,2.646,11.066c0,8.659-2.886,15.395-8.659,20.206c-5.773,4.492-13.952,6.736-24.535,6.736
	c-10.907,0-19.086-2.326-24.534-6.978C15.494,127.3,12.287,120.403,11.806,111.26z"/>
<path fill="#F8971D" d="M244.934,51.995v50.032c0,15.179-3.766,25.118-11.283,29.82c-7.521,4.706-15.756,7.054-24.7,7.054
	c-8.744-0.427-16.722-2.993-23.935-7.694c-7.221-4.7-10.828-14.434-10.828-29.179V51.995h21.347v54.518
	c0,5.134,1.418,8.873,4.269,11.224c2.843,2.354,6.099,3.527,9.76,3.527c3.655,0,6.959-1.174,9.908-3.527
	c2.944-2.351,4.424-6.089,4.424-11.224V62.897c0-2.991,0.961-5.556,2.893-7.694c1.931-2.132,4.423-3.209,7.471-3.209H244.934z"/>
<path fill="#F8971D" d="M121.582,51.851c5.392,0,11.119,1.442,15.687,3.081c3.372,1.21,8.098,4.239,11.447,7.1
	c8.726,7.452,12.665,17.299,13.69,27.908c0.569,5.901,0.286,5.353,0.286,10.744v77.4c0,0-0.697,0-7.261,0
	c-12.715,0.862-11.487-7.668-11.487-7.668v-45.044c-8.916,4.513-16.369,6.613-23.3,6.613c-5.616,0-10.874-1.043-15.769-3.138
	c-4.896-2.086-9.135-4.948-12.712-8.584c-3.576-3.634-6.384-7.868-8.42-12.711c-2.038-4.844-3.055-10.013-3.055-15.519
	c0-5.503,1.075-10.673,3.217-15.517c2.15-4.843,5.038-9.082,8.671-12.713c3.632-3.631,7.867-6.494,12.712-8.584
	C110.13,53.13,116.187,51.851,121.582,51.851z M144.415,92.032c0-3.189-0.603-6.218-1.815-9.078c-1.214-2.86-2.89-5.364-5.034-7.511
	c-2.148-2.146-4.655-3.851-7.514-5.117c-2.862-1.265-6-1.901-9.407-1.901c-3.196,0-6.222,0.606-9.081,1.816
	c-2.865,1.213-5.366,2.888-7.514,5.037c-2.144,2.142-3.852,4.648-5.117,7.508c-1.266,2.865-1.899,5.945-1.899,9.246
	c0,3.3,0.604,6.385,1.816,9.248c1.213,2.863,2.863,5.391,4.952,7.589c2.092,2.208,4.595,3.941,7.513,5.202
	c2.915,1.268,6.025,1.901,9.329,1.901c3.187,0,6.215-0.578,9.078-1.732c2.86-1.156,5.389-2.809,7.596-4.955
	c2.199-2.148,3.932-4.676,5.198-7.592C143.781,98.777,144.415,95.557,144.415,92.032z"/>
<path fill="#F8971D" d="M490.023,71.864c5.614-0.683,11.18-0.142,16.677,1.624c5.499,1.763,10.451,4.371,14.85,7.81
	c4.397,3.448,8.108,7.631,11.148,12.542c3.031,4.918,4.891,10.183,5.575,15.802c0.285,2.344-0.342,4.528-1.876,6.553
	c-1.537,2.029-3.658,3.149-6.362,3.36l-58.993,7.18c4.132,5.671,8.615,9.527,13.435,11.547c4.814,2.031,9.452,2.769,13.9,2.228
	c2.458-0.299,4.528-0.847,6.209-1.645c1.686-0.802,2-0.728,3.143-1.507c3.664-2.51,8.01-3.412,10.57,2.155
	c1.516,3.304,4.251,9.229,4.117,9.6c0,0-3.259,2.748-10.022,5.546c-3.731,1.543-7.765,2.607-12.082,3.256
	c-5.706,0.93-11.302,0.574-16.788-1.079c-5.483-1.646-10.433-4.222-14.834-7.727c-4.41-3.499-8.071-7.745-10.994-12.733
	c-2.923-4.991-4.742-10.409-5.454-16.264c-0.684-5.619-0.2-11.169,1.448-16.657c1.648-5.481,4.22-10.429,7.724-14.839
	c3.505-4.401,7.683-8.12,12.541-11.144C478.816,74.447,484.168,72.576,490.023,71.864z M519.385,102.32
	c-3.38-4.337-7.442-7.736-12.197-10.185c-4.75-2.447-9.761-3.357-15.028-2.716c-5.504,0.67-10.263,2.795-14.279,6.373
	c-4.021,3.581-6.986,7.741-8.905,12.486c-0.208,0.26-0.292,0.513-0.264,0.744l50.914-6.197c-0.119,0.014-0.183-0.035-0.198-0.157
	L519.385,102.32z"/>
</svg>
