<?xml version="1.0" encoding="utf-8"?>
<!-- Generator: Adobe Illustrator 17.1.0, SVG Export Plug-In . SVG Version: 6.00 Build 0)  -->
<!DOCTYPE svg PUBLIC "-//W3C//DTD SVG 1.1//EN" "http://www.w3.org/Graphics/SVG/1.1/DTD/svg11.dtd">
<svg version="1.1" id="Layer_1" xmlns="http://www.w3.org/2000/svg" xmlns:xlink="http://www.w3.org/1999/xlink" x="0px" y="0px"
	 viewBox="0 68.6 220 83.4" enable-background="new 0 68.6 220 83.4" xml:space="preserve">
<path fill="#715D26" d="M110.7,262.2l0.2-28.1c0,0,0-5.3,5.1-7.4c1.7-0.7,2.9-0.7,4.5-1.1c0,0,3.7-0.6,3.5-4.4c0,0,2.6,2.2,2.8,4
	c0.3,2.9-2.1,3.4-1.7,3.3c0,0-1.3,0.6-3.8,0.7c-1.2,0-2.9-0.1-4.2,1c-1.7,1.5-2.3,2.9-2.8,5c0,0-1,4.3,1.3,7.6c0,0,1.4,2.2,3.2,2.4
	c0,0,2.6,0.5,4.4-2c0,0,1.3-1.3,1.3-4.7c0,0,0-2.4-1.2-4c0,0-0.4-0.7-1.6-1.6l0.6-1.5c0,0,1-2,2.6-0.9c0.6,0.4,1,1,1.4,1.7
	c0,0,1.6,3,1.7,6.2c0,0,0.1,3-1,5.4c0,0-0.9,2.4-2.5,3.7c0,0-1.3,1.3-3.1,1.8c0,0-1.8,0.6-3.8-0.1c0,0-1.4-0.4-2.8-1.4v12.6
	c0,0,0.1,1.7-1.7,1.8L110.7,262.2L110.7,262.2z"/>
<path fill="#715D26" d="M109.4,251.4l-0.2-13.8c0,0,0-4.6-7-6.5c-2.3-0.6-3.9-0.6-6.2-1c0,0-5.1-0.5-4.9-3.9c0,0-3.6,1.9-3.9,3.5
	c-0.5,2.5,2.9,2.9,2.4,2.9c0,0,1.8,0.5,5.3,0.6c1.6,0,4.1,0,5.8,0.9c2.4,1.3,3.1,2.5,3.8,4.4c0,0,1.4,3.8-1.8,6.6c0,0-2,1.9-4.3,2.1
	c0,0-3.5,0.4-6.1-1.8c0,0-1.7-1.1-1.8-4c0,0,0-2.1,1.7-3.5c0,0,0.6-0.6,2.2-1.3l-0.9-1.3c0,0-1.4-1.7-3.6-0.8
	c-0.8,0.3-1.4,0.8-1.9,1.5c0,0-2.3,2.6-2.3,5.4c0,0-0.1,2.6,1.4,4.7c0,0,1.2,2.1,3.4,3.2c0,0,1.7,1.1,4.3,1.6c0,0,2.4,0.5,5.3-0.1
	c0,0,2-0.4,3.9-1.3v0.2c0,0-0.1,1.5,2.4,1.6L109.4,251.4L109.4,251.4z"/>
<path fill="#715D26" d="M33.5,244.3h3.7c0.1,1,0.5,1.8,1.2,2.2c0.7,0.5,1.7,0.7,2.9,0.7c1.1,0,1.9-0.2,2.5-0.6
	c0.6-0.4,0.8-0.9,0.8-1.7c0-1.1-1.6-2-4.7-2.7l-0.1-0.1l-0.4-0.1c-1.8-0.4-3-0.8-3.5-1.2c-0.7-0.4-1.2-0.9-1.5-1.7
	c-0.3-0.6-0.5-1.4-0.5-2.4c0-1.7,0.6-3,1.8-4c1.2-0.9,2.9-1.4,5.2-1.4c2.1,0,3.8,0.5,4.9,1.5c1.2,1.1,1.8,2.5,1.9,4.2h-2.1
	c-0.8,0-1.4-0.4-1.7-1.1c-0.2-0.3-0.4-0.6-0.7-0.9c-0.6-0.5-1.5-0.7-2.6-0.7c-1,0-1.8,0.2-2.2,0.6c-0.5,0.4-0.8,0.9-0.8,1.6
	c0,0.9,1,1.6,3,2.1c0.6,0.2,1,0.3,1.3,0.3c0.6,0.2,1.2,0.4,1.6,0.5c0.5,0.1,0.8,0.2,1.1,0.3c0.5,0.2,1,0.4,1.5,0.6
	c0.7,0.4,1.2,1,1.6,1.6c0.4,0.7,0.6,1.5,0.6,2.4c0,1.9-0.6,3.3-1.9,4.4c-1.3,1-3,1.5-5.3,1.5c-2.4,0-4.1-0.5-5.3-1.5
	C34.3,247.8,33.6,246.3,33.5,244.3z"/>
<path fill="#715D26" d="M84,231.5v10.8c0,3.3-0.8,5.4-2.4,6.5c-1.6,1-3.4,1.5-5.4,1.5c-1.9-0.1-3.6-0.6-5.2-1.7
	c-1.6-1-2.3-3.1-2.3-6.3v-10.8h4.6v11.8c0,1.1,0.3,1.9,0.9,2.4s1.3,0.8,2.1,0.8c0.8,0,1.5-0.3,2.1-0.8s1-1.3,1-2.4v-9.5
	c0-0.6,0.2-1.2,0.6-1.7s1-0.7,1.6-0.7L84,231.5L84,231.5z"/>
<path fill="#715D26" d="M57.3,231.4c1.2,0,2.4,0.3,3.4,0.7c0.7,0.3,1.8,0.9,2.5,1.5c1.9,1.6,2.7,3.8,3,6.1c0.1,1.3,0.1,1.2,0.1,2.3
	v16.8c0,0-0.2,0-1.6,0c-2.8,0.2-2.5-1.7-2.5-1.7v-9.8c-1.9,1-3.5,1.4-5.1,1.4c-1.2,0-2.4-0.2-3.4-0.7c-1.1-0.5-2-1.1-2.8-1.9
	c-0.8-0.8-1.4-1.7-1.8-2.8c-0.4-1.1-0.7-2.2-0.7-3.4s0.2-2.3,0.7-3.4c0.5-1,1.1-2,1.9-2.8c0.8-0.8,1.7-1.4,2.8-1.9
	C54.8,231.7,56.1,231.4,57.3,231.4z M62.2,240.2c0-0.7-0.1-1.3-0.4-2c-0.3-0.6-0.6-1.2-1.1-1.6c-0.5-0.5-1-0.8-1.6-1.1
	s-1.3-0.4-2-0.4s-1.3,0.1-2,0.4c-0.6,0.3-1.2,0.6-1.6,1.1c-0.5,0.5-0.8,1-1.1,1.6s-0.4,1.3-0.4,2s0.1,1.4,0.4,2
	c0.3,0.6,0.6,1.2,1.1,1.6c0.5,0.5,1,0.9,1.6,1.1c0.6,0.3,1.3,0.4,2,0.4s1.3-0.1,2-0.4c0.6-0.3,1.2-0.6,1.6-1.1
	c0.5-0.5,0.9-1,1.1-1.6C62.1,241.6,62.2,240.9,62.2,240.2z"/>
<path fill="#715D26" d="M137.2,235.8c1.2-0.1,2.4,0,3.6,0.4c1.2,0.4,2.3,0.9,3.2,1.7c1,0.7,1.8,1.7,2.4,2.7c0.7,1.1,1.1,2.2,1.2,3.4
	c0.1,0.5-0.1,1-0.4,1.4c-0.3,0.4-0.8,0.7-1.4,0.7l-12.8,1.6c0.9,1.2,1.9,2.1,2.9,2.5s2,0.6,3,0.5c0.5-0.1,1-0.2,1.3-0.4
	c0.4-0.2,0.4-0.2,0.7-0.3c0.8-0.5,1.7-0.7,2.3,0.5c0.3,0.7,0.9,2,0.9,2.1c0,0-0.7,0.6-2.2,1.2c-0.8,0.3-1.7,0.6-2.6,0.7
	c-1.2,0.2-2.5,0.1-3.6-0.2c-1.2-0.4-2.3-0.9-3.2-1.7c-1-0.8-1.8-1.7-2.4-2.8c-0.6-1.1-1-2.3-1.2-3.5c-0.1-1.2,0-2.4,0.3-3.6
	c0.4-1.2,0.9-2.3,1.7-3.2c0.8-1,1.7-1.8,2.7-2.4C134.7,236.3,135.9,235.9,137.2,235.8z M143.5,242.4c-0.7-0.9-1.6-1.7-2.6-2.2
	s-2.1-0.7-3.3-0.6c-1.2,0.1-2.2,0.6-3.1,1.4c-0.9,0.8-1.5,1.7-1.9,2.7c0,0.1-0.1,0.1-0.1,0.2l11-1.3
	C143.6,242.5,143.6,242.5,143.5,242.4L143.5,242.4z"/>
<path fill="#F0C419" d="M109.5,260.4l0.2-28.1c0,0,0-5.3,5.1-7.4c1.7-0.7,2.9-0.7,4.5-1.1c0,0,3.7-0.6,3.5-4.4c0,0,2.6,2.2,2.8,4
	c0.3,2.9-2.1,3.4-1.7,3.3c0,0-1.3,0.6-3.8,0.7c-1.2,0-2.9-0.1-4.2,1c-1.7,1.5-2.3,2.9-2.8,5c0,0-1,4.3,1.3,7.6c0,0,1.4,2.2,3.2,2.4
	c0,0,2.6,0.5,4.4-2c0,0,1.3-1.3,1.3-4.7c0,0,0-2.4-1.2-4c0,0-0.4-0.7-1.6-1.6l0.6-1.5c0,0,1-2,2.6-0.9c0.6,0.4,1,1,1.4,1.7
	c0,0,1.6,3,1.7,6.2c0,0,0.1,3-1,5.4c0,0-0.9,2.4-2.5,3.7c0,0-1.3,1.3-3.1,1.8c0,0-1.8,0.6-3.8-0.1c0,0-1.4-0.4-2.8-1.4v12.6
	c0,0,0.1,1.7-1.7,1.8L109.5,260.4L109.5,260.4z"/>
<path fill="#F0C419" d="M108.2,249.6l-0.2-13.8c0,0,0-4.6-7-6.5c-2.3-0.6-3.9-0.6-6.2-1c0,0-5.1-0.5-4.9-3.9c0,0-3.6,1.9-3.9,3.5
	c-0.5,2.5,2.9,2.9,2.4,2.9c0,0,1.8,0.5,5.3,0.6c1.6,0,4.1,0,5.8,0.9c2.4,1.3,3.1,2.5,3.8,4.4c0,0,1.4,3.8-1.8,6.6c0,0-2,1.9-4.3,2.1
	c0,0-3.5,0.4-6.1-1.8c0,0-1.7-1.1-1.8-4c0,0,0-2.1,1.7-3.5c0,0,0.6-0.6,2.2-1.3l-0.9-1.3c0,0-1.4-1.7-3.6-0.8
	c-0.8,0.3-1.4,0.8-1.9,1.5c0,0-2.3,2.6-2.3,5.4c0,0-0.1,2.6,1.4,4.7c0,0,1.2,2.1,3.4,3.2c0,0,1.7,1.1,4.3,1.6c0,0,2.4,0.5,5.3-0.1
	c0,0,2-0.4,3.9-1.3v0.2c0,0-0.1,1.5,2.4,1.6L108.2,249.6L108.2,249.6z"/>
<path fill="#F0C419" d="M32.3,242.5H36c0.1,1,0.5,1.8,1.2,2.2c0.7,0.5,1.7,0.7,2.9,0.7c1.1,0,1.9-0.2,2.5-0.6
	c0.6-0.4,0.8-0.9,0.8-1.7c0-1.1-1.6-2-4.7-2.7l-0.1-0.1l-0.4-0.1c-1.8-0.4-3-0.8-3.5-1.2c-0.7-0.4-1.2-0.9-1.5-1.7
	c-0.3-0.6-0.5-1.4-0.5-2.4c0-1.7,0.6-3,1.8-4c1.2-0.9,2.9-1.4,5.2-1.4c2.1,0,3.8,0.5,4.9,1.5c1.2,1.1,1.8,2.5,1.9,4.2h-2.1
	c-0.8,0-1.4-0.4-1.7-1.1c-0.2-0.3-0.4-0.6-0.7-0.9c-0.6-0.5-1.5-0.7-2.6-0.7c-1,0-1.8,0.2-2.2,0.6c-0.5,0.4-0.8,0.9-0.8,1.6
	c0,0.9,1,1.6,3,2.1c0.6,0.2,1,0.3,1.3,0.3c0.6,0.2,1.2,0.4,1.6,0.5c0.5,0.1,0.8,0.2,1.1,0.3c0.5,0.2,1,0.4,1.5,0.6
	c0.7,0.4,1.2,1,1.6,1.6c0.4,0.7,0.6,1.5,0.6,2.4c0,1.9-0.6,3.3-1.9,4.4c-1.3,1-3,1.5-5.3,1.5c-2.4,0-4.1-0.5-5.3-1.5
	C33.1,246,32.4,244.5,32.3,242.5z"/>
<path fill="#F0C419" d="M82.8,229.7v10.8c0,3.3-0.8,5.4-2.4,6.5c-1.6,1-3.4,1.5-5.4,1.5c-1.9-0.1-3.6-0.6-5.2-1.7
	c-1.6-1-2.3-3.1-2.3-6.3v-10.8h4.6v11.8c0,1.1,0.3,1.9,0.9,2.4s1.3,0.8,2.1,0.8c0.8,0,1.5-0.3,2.1-0.8s1-1.3,1-2.4V232
	c0-0.6,0.2-1.2,0.6-1.7s1-0.7,1.6-0.7L82.8,229.7L82.8,229.7z"/>
<path fill="#F0C419" d="M56.1,229.6c1.2,0,2.4,0.3,3.4,0.7c0.7,0.3,1.8,0.9,2.5,1.5c1.9,1.6,2.7,3.8,3,6.1c0.1,1.3,0.1,1.2,0.1,2.3
	V257c0,0-0.2,0-1.6,0c-2.8,0.2-2.5-1.7-2.5-1.7v-9.8c-1.9,1-3.5,1.4-5.1,1.4c-1.2,0-2.4-0.2-3.4-0.7c-1.1-0.5-2-1.1-2.8-1.9
	c-0.8-0.8-1.4-1.7-1.8-2.8c-0.4-1.1-0.7-2.2-0.7-3.4s0.2-2.3,0.7-3.4c0.5-1,1.1-2,1.9-2.8c0.8-0.8,1.7-1.4,2.8-1.9
	C53.6,229.9,54.9,229.6,56.1,229.6z M61,238.4c0-0.7-0.1-1.3-0.4-2c-0.3-0.6-0.6-1.2-1.1-1.6c-0.5-0.5-1-0.8-1.6-1.1s-1.3-0.4-2-0.4
	s-1.3,0.1-2,0.4c-0.6,0.3-1.2,0.6-1.6,1.1c-0.5,0.5-0.8,1-1.1,1.6s-0.4,1.3-0.4,2s0.1,1.4,0.4,2c0.3,0.6,0.6,1.2,1.1,1.6
	c0.5,0.5,1,0.9,1.6,1.1c0.6,0.3,1.3,0.4,2,0.4s1.3-0.1,2-0.4c0.6-0.3,1.2-0.6,1.6-1.1c0.5-0.5,0.9-1,1.1-1.6
	C60.9,239.8,61,239.1,61,238.4z"/>
<path fill="#F0C419" d="M136,234c1.2-0.1,2.4,0,3.6,0.4c1.2,0.4,2.3,0.9,3.2,1.7c1,0.7,1.8,1.7,2.4,2.7c0.7,1.1,1.1,2.2,1.2,3.4
	c0.1,0.5-0.1,1-0.4,1.4c-0.3,0.4-0.8,0.7-1.4,0.7l-12.8,1.6c0.9,1.2,1.9,2.1,2.9,2.5s2,0.6,3,0.5c0.5-0.1,1-0.2,1.3-0.4
	c0.4-0.2,0.4-0.2,0.7-0.3c0.8-0.5,1.7-0.7,2.3,0.5c0.3,0.7,0.9,2,0.9,2.1c0,0-0.7,0.6-2.2,1.2c-0.8,0.3-1.7,0.6-2.6,0.7
	c-1.2,0.2-2.5,0.1-3.6-0.2c-1.2-0.4-2.3-0.9-3.2-1.7c-1-0.8-1.8-1.7-2.4-2.8c-0.6-1.1-1-2.3-1.2-3.5c-0.1-1.2,0-2.4,0.3-3.6
	c0.4-1.2,0.9-2.3,1.7-3.2c0.8-1,1.7-1.8,2.7-2.4C133.5,234.5,134.7,234.1,136,234z M142.3,240.6c-0.7-0.9-1.6-1.7-2.6-2.2
	s-2.1-0.7-3.3-0.6c-1.2,0.1-2.2,0.6-3.1,1.4c-0.9,0.8-1.5,1.7-1.9,2.7c0,0.1-0.1,0.1-0.1,0.2l11-1.3
	C142.4,240.7,142.3,240.7,142.3,240.6L142.3,240.6z"/>
<path fill="#F8971D" d="M-109.6,169l0.2-28.1c0,0,0-5.3,5.1-7.4c1.7-0.7,2.9-0.7,4.5-1.1c0,0,3.7-0.6,3.5-4.4c0,0,2.6,2.2,2.8,4
	c0.3,2.9-2.1,3.4-1.7,3.3c0,0-1.3,0.6-3.8,0.7c-1.2,0-2.9-0.1-4.2,1c-1.7,1.5-2.3,2.9-2.8,5c0,0-1,4.3,1.3,7.6c0,0,1.4,2.2,3.2,2.4
	c0,0,2.6,0.5,4.4-2c0,0,1.3-1.3,1.3-4.7c0,0,0-2.4-1.2-4c0,0-0.4-0.7-1.6-1.6l0.6-1.5c0,0,1-2,2.6-0.9c0.6,0.4,1,1,1.4,1.7
	c0,0,1.6,3,1.7,6.2c0,0,0.1,3-1,5.4c0,0-0.9,2.4-2.5,3.7c0,0-1.3,1.3-3.1,1.8c0,0-1.8,0.6-3.8-0.1c0,0-1.4-0.4-2.8-1.4v12.6
	c0,0,0.1,1.7-1.7,1.8H-109.6L-109.6,169z"/>
<path fill="#F8971D" d="M-110.9,158.2l-0.2-13.8c0,0,0-4.6-7-6.5c-2.3-0.6-3.9-0.6-6.2-1c0,0-5.1-0.5-4.9-3.9c0,0-3.6,1.9-3.9,3.5
	c-0.5,2.5,2.9,2.9,2.4,2.9c0,0,1.8,0.5,5.3,0.6c1.6,0,4.1,0,5.8,0.9c2.4,1.3,3.1,2.5,3.8,4.4c0,0,1.4,3.8-1.8,6.6c0,0-2,1.9-4.3,2.1
	c0,0-3.5,0.4-6.1-1.8c0,0-1.7-1.1-1.8-4c0,0,0-2.1,1.7-3.5c0,0,0.6-0.6,2.2-1.3l-0.9-1.3c0,0-1.4-1.7-3.6-0.8
	c-0.8,0.3-1.4,0.8-1.9,1.5c0,0-2.3,2.6-2.3,5.4c0,0-0.1,2.6,1.4,4.7c0,0,1.2,2.1,3.4,3.2c0,0,1.7,1.1,4.3,1.6c0,0,2.4,0.5,5.3-0.1
	c0,0,2-0.4,3.9-1.3v0.2c0,0-0.1,1.5,2.4,1.6L-110.9,158.2L-110.9,158.2z"/>
<path fill="#F8971D" d="M-186.8,151.2h3.7c0.1,1,0.5,1.8,1.2,2.2c0.7,0.5,1.7,0.7,2.9,0.7c1.1,0,1.9-0.2,2.5-0.6
	c0.6-0.4,0.8-0.9,0.8-1.7c0-1.1-1.6-2-4.7-2.7l-0.1-0.1l-0.4-0.1c-1.8-0.4-3-0.8-3.5-1.2c-0.7-0.4-1.2-0.9-1.5-1.7
	c-0.3-0.6-0.5-1.4-0.5-2.4c0-1.7,0.6-3,1.8-4c1.2-0.9,2.9-1.4,5.2-1.4c2.1,0,3.8,0.5,4.9,1.5c1.2,1.1,1.8,2.5,1.9,4.2h-2.1
	c-0.8,0-1.4-0.4-1.7-1.1c-0.2-0.3-0.4-0.6-0.7-0.9c-0.6-0.5-1.5-0.7-2.6-0.7c-1,0-1.8,0.2-2.2,0.6c-0.5,0.4-0.8,0.9-0.8,1.6
	c0,0.9,1,1.6,3,2.1c0.6,0.2,1,0.3,1.3,0.3c0.6,0.2,1.2,0.4,1.6,0.5c0.5,0.1,0.8,0.2,1.1,0.3c0.5,0.2,1,0.4,1.5,0.6
	c0.7,0.4,1.2,1,1.6,1.6c0.4,0.7,0.6,1.5,0.6,2.4c0,1.9-0.6,3.3-1.9,4.4c-1.3,1-3,1.5-5.3,1.5c-2.4,0-4.1-0.5-5.3-1.5
	C-186,154.6-186.7,153.1-186.8,151.2z"/>
<path fill="#F8971D" d="M-136.3,138.3v10.8c0,3.3-0.8,5.4-2.4,6.5c-1.6,1-3.4,1.5-5.4,1.5c-1.9-0.1-3.6-0.6-5.2-1.7
	c-1.6-1-2.3-3.1-2.3-6.3v-10.8h4.6v11.8c0,1.1,0.3,1.9,0.9,2.4c0.6,0.5,1.3,0.8,2.1,0.8s1.5-0.3,2.1-0.8s1-1.3,1-2.4v-9.5
	c0-0.6,0.2-1.2,0.6-1.7c0.4-0.5,1-0.7,1.6-0.7L-136.3,138.3L-136.3,138.3z"/>
<path fill="#F8971D" d="M-163,138.3c1.2,0,2.4,0.3,3.4,0.7c0.7,0.3,1.8,0.9,2.5,1.5c1.9,1.6,2.7,3.8,3,6.1c0.1,1.3,0.1,1.2,0.1,2.3
	v16.9c0,0-0.2,0-1.6,0c-2.8,0-2.4-1.8-2.4-1.8v-9.8c-2,1-3.6,1.4-5.1,1.4c-1.2,0-2.4-0.2-3.4-0.7c-1.1-0.5-2-1.1-2.8-1.9
	c-0.8-0.8-1.4-1.7-1.8-2.8c-0.4-1.1-0.7-2.2-0.7-3.4s0.2-2.3,0.7-3.4c0.5-1,1.1-2,1.9-2.8c0.8-0.8,1.7-1.4,2.8-1.9
	C-165.5,138.6-164.2,138.3-163,138.3z M-158.1,147c0-0.7-0.1-1.3-0.4-2c-0.3-0.6-0.6-1.2-1.1-1.6c-0.5-0.5-1-0.8-1.6-1.1
	s-1.3-0.4-2-0.4s-1.3,0.1-2,0.4c-0.6,0.3-1.2,0.6-1.6,1.1c-0.5,0.5-0.8,1-1.1,1.6s-0.4,1.3-0.4,2s0.1,1.4,0.4,2s0.6,1.2,1.1,1.6
	c0.5,0.5,1,0.9,1.6,1.1c0.6,0.3,1.3,0.4,2,0.4s1.3-0.1,2-0.4c0.6-0.3,1.2-0.6,1.6-1.1c0.5-0.5,0.9-1,1.1-1.6
	C-158.2,148.5-158.1,147.8-158.1,147z"/>
<path fill="#F8971D" d="M-83.2,142.6c1.2-0.1,2.4,0,3.6,0.4s2.3,0.9,3.2,1.7c1,0.7,1.8,1.7,2.4,2.7c0.7,1.1,1.1,2.2,1.2,3.4
	c0.1,0.5-0.1,1-0.4,1.4s-0.8,0.7-1.4,0.7l-12.8,1.6c0.9,1.2,1.9,2.1,2.9,2.5s2,0.6,3,0.5c0.5-0.1,1-0.2,1.3-0.4
	c0.4-0.2,0.4-0.2,0.7-0.3c0.8-0.5,1.7-0.7,2.3,0.5c0.3,0.7,0.9,2,0.9,2.1c0,0-0.7,0.6-2.2,1.2c-0.8,0.3-1.7,0.6-2.6,0.7
	c-1.2,0.2-2.5,0.1-3.6-0.2c-1.2-0.4-2.3-0.9-3.2-1.7c-1-0.8-1.7-1.7-2.4-2.8c-0.6-1.1-1-2.3-1.2-3.5c-0.1-1.2,0-2.4,0.3-3.6
	c0.4-1.2,0.9-2.3,1.7-3.2c0.8-1,1.7-1.8,2.7-2.4C-85.6,143.2-84.4,142.8-83.2,142.6z M-76.8,149.2c-0.7-0.9-1.6-1.7-2.6-2.2
	s-2.1-0.7-3.3-0.6c-1.2,0.1-2.2,0.6-3.1,1.4c-0.9,0.8-1.5,1.7-1.9,2.7c0,0.1-0.1,0.1-0.1,0.2l11-1.3
	C-76.8,149.3-76.8,149.3-76.8,149.2L-76.8,149.2z"/>
<path fill="#784B1E" d="M-114.5,109.6l0.2-28.1c0,0,0-5.3,5.1-7.4c1.7-0.7,2.9-0.7,4.5-1.1c0,0,3.7-0.6,3.5-4.4c0,0,2.6,2.2,2.8,4
	c0.3,2.9-2.1,3.4-1.7,3.3c0,0-1.3,0.6-3.8,0.7c-1.2,0-2.9-0.1-4.2,1c-1.7,1.5-2.3,2.9-2.8,5c0,0-1,4.3,1.3,7.6c0,0,1.4,2.2,3.2,2.4
	c0,0,2.6,0.5,4.4-2c0,0,1.3-1.3,1.3-4.7c0,0,0-2.4-1.2-4c0,0-0.4-0.7-1.6-1.6l0.6-1.5c0,0,1-2,2.6-0.9c0.6,0.4,1,1,1.4,1.7
	c0,0,1.6,3,1.7,6.2c0,0,0.1,3-1,5.4c0,0-0.9,2.4-2.5,3.7c0,0-1.3,1.3-3.1,1.8c0,0-1.8,0.6-3.8-0.1c0,0-1.4-0.4-2.8-1.4v12.6
	c0,0,0.1,1.7-1.7,1.8H-114.5L-114.5,109.6z"/>
<path fill="#784B1E" d="M-115.7,98.8L-116,85c0,0,0-4.6-7-6.5c-2.3-0.6-3.9-0.6-6.2-1c0,0-5.1-0.5-4.9-3.9c0,0-3.6,1.9-3.9,3.5
	c-0.5,2.5,2.9,2.9,2.4,2.9c0,0,1.8,0.5,5.3,0.6c1.6,0,4.1,0,5.8,0.9c2.4,1.3,3.1,2.5,3.8,4.4c0,0,1.4,3.8-1.8,6.6c0,0-2,1.9-4.3,2.1
	c0,0-3.5,0.4-6.1-1.8c0,0-1.7-1.1-1.8-4c0,0,0-2.1,1.7-3.5c0,0,0.6-0.6,2.2-1.3l-0.9-1.3c0,0-1.4-1.7-3.6-0.8
	c-0.8,0.3-1.4,0.8-1.9,1.5c0,0-2.3,2.6-2.3,5.4c0,0-0.1,2.6,1.4,4.7c0,0,1.2,2.1,3.4,3.2c0,0,1.7,1.1,4.3,1.6c0,0,2.4,0.5,5.3-0.1
	c0,0,2-0.4,3.9-1.3v0.2c0,0-0.1,1.5,2.4,1.6L-115.7,98.8L-115.7,98.8z"/>
<path fill="#784B1E" d="M-191.7,91.7h3.7c0.1,1,0.5,1.8,1.2,2.2c0.7,0.5,1.7,0.7,2.9,0.7c1.1,0,1.9-0.2,2.5-0.6s0.8-0.9,0.8-1.7
	c0-1.1-1.6-2-4.7-2.7l-0.1-0.1l-0.4-0.1c-1.8-0.4-3-0.8-3.5-1.2c-0.7-0.4-1.2-0.9-1.5-1.7c-0.3-0.6-0.5-1.4-0.5-2.4
	c0-1.7,0.6-3,1.8-4c1.2-0.9,2.9-1.4,5.2-1.4c2.1,0,3.8,0.5,4.9,1.5c1.2,1.1,1.8,2.5,1.9,4.2h-2.1c-0.8,0-1.4-0.4-1.7-1.1
	c-0.2-0.3-0.4-0.6-0.7-0.9c-0.6-0.5-1.5-0.7-2.6-0.7c-1,0-1.8,0.2-2.2,0.6c-0.5,0.4-0.8,0.9-0.8,1.6c0,0.9,1,1.6,3,2.1
	c0.6,0.2,1,0.3,1.3,0.3c0.6,0.2,1.2,0.4,1.6,0.5c0.5,0.1,0.8,0.2,1.1,0.3c0.5,0.2,1,0.4,1.5,0.6c0.7,0.4,1.2,1,1.6,1.6
	c0.4,0.7,0.6,1.5,0.6,2.4c0,1.9-0.6,3.3-1.9,4.4c-1.3,1-3,1.5-5.3,1.5c-2.4,0-4.1-0.5-5.3-1.5C-190.9,95.2-191.6,93.7-191.7,91.7z"
	/>
<path fill="#784B1E" d="M-141.1,78.9v10.8c0,3.3-0.8,5.4-2.4,6.5c-1.6,1-3.4,1.5-5.4,1.5c-1.9-0.1-3.6-0.6-5.2-1.7
	c-1.6-1-2.3-3.1-2.3-6.3V78.9h4.6v11.8c0,1.1,0.3,1.9,0.9,2.4c0.6,0.5,1.3,0.8,2.1,0.8s1.5-0.3,2.1-0.8s1-1.3,1-2.4v-9.5
	c0-0.6,0.2-1.2,0.6-1.7c0.4-0.5,1-0.7,1.6-0.7C-143.5,78.9-141.1,78.9-141.1,78.9z"/>
<path fill="#784B1E" d="M-167.9,78.8c1.2,0,2.4,0.3,3.4,0.7c0.7,0.3,1.8,0.9,2.5,1.5c1.9,1.6,2.7,3.8,3,6.1c0.1,1.3,0.1,1.2,0.1,2.3
	v16.8c0,0-0.2,0-1.6,0c-2.8,0.2-2.5-1.7-2.5-1.7v-9.8c-1.9,1-3.5,1.4-5.1,1.4c-1.2,0-2.4-0.2-3.4-0.7c-1.1-0.5-2-1.1-2.8-1.9
	s-1.4-1.7-1.8-2.8c-0.4-1.1-0.7-2.2-0.7-3.4c0-1.2,0.2-2.3,0.7-3.4c0.5-1,1.1-2,1.9-2.8c0.8-0.8,1.7-1.4,2.8-1.9
	C-170.4,79.1-169.1,78.8-167.9,78.8z M-162.9,87.6c0-0.7-0.1-1.3-0.4-2c-0.3-0.6-0.6-1.2-1.1-1.6c-0.5-0.5-1-0.8-1.6-1.1
	c-0.6-0.3-1.3-0.4-2-0.4s-1.3,0.1-2,0.4c-0.6,0.3-1.2,0.6-1.6,1.1c-0.5,0.5-0.8,1-1.1,1.6s-0.4,1.3-0.4,2s0.1,1.4,0.4,2
	s0.6,1.2,1.1,1.6c0.5,0.5,1,0.9,1.6,1.1c0.6,0.3,1.3,0.4,2,0.4s1.3-0.1,2-0.4c0.6-0.3,1.2-0.6,1.6-1.1c0.5-0.5,0.9-1,1.1-1.6
	C-163.1,89-162.9,88.3-162.9,87.6z"/>
<path fill="#784B1E" d="M-88,83.2c1.2-0.1,2.4,0,3.6,0.4s2.3,0.9,3.2,1.7c1,0.7,1.8,1.7,2.4,2.7c0.7,1.1,1.1,2.2,1.2,3.4
	c0.1,0.5-0.1,1-0.4,1.4s-0.8,0.7-1.4,0.7l-12.8,1.6c0.9,1.2,1.9,2.1,2.9,2.5s2,0.6,3,0.5c0.5-0.1,1-0.2,1.3-0.4
	c0.4-0.2,0.4-0.2,0.7-0.3c0.8-0.5,1.7-0.7,2.3,0.5c0.3,0.7,0.9,2,0.9,2.1c0,0-0.7,0.6-2.2,1.2c-0.8,0.3-1.7,0.6-2.6,0.7
	c-1.2,0.2-2.5,0.1-3.6-0.2c-1.2-0.4-2.3-0.9-3.2-1.7c-1-0.8-1.7-1.7-2.4-2.8c-0.6-1.1-1-2.3-1.2-3.5c-0.1-1.2,0-2.4,0.3-3.6
	c0.4-1.2,0.9-2.3,1.7-3.2c0.8-1,1.7-1.8,2.7-2.4C-90.4,83.7-89.3,83.3-88,83.2z M-81.6,89.8c-0.7-0.9-1.6-1.7-2.6-2.2
	s-2.1-0.7-3.3-0.6c-1.2,0.1-2.2,0.6-3.1,1.4s-1.5,1.7-1.9,2.7c0,0.1-0.1,0.1-0.1,0.2l11-1.3C-81.6,89.9-81.6,89.9-81.6,89.8
	L-81.6,89.8z"/>
<path fill="#F8971D" d="M-114.5,107.6l0.2-28.1c0,0,0-5.3,5.1-7.4c1.7-0.7,2.9-0.7,4.5-1.1c0,0,3.7-0.6,3.5-4.4c0,0,2.6,2.2,2.8,4
	c0.3,2.9-2.1,3.4-1.7,3.3c0,0-1.3,0.6-3.8,0.7c-1.2,0-2.9-0.1-4.2,1c-1.7,1.5-2.3,2.9-2.8,5c0,0-1,4.3,1.3,7.6c0,0,1.4,2.2,3.2,2.4
	c0,0,2.6,0.5,4.4-2c0,0,1.3-1.3,1.3-4.7c0,0,0-2.4-1.2-4c0,0-0.4-0.7-1.6-1.6l0.6-1.5c0,0,1-2,2.6-0.9c0.6,0.4,1,1,1.4,1.7
	c0,0,1.6,3,1.7,6.2c0,0,0.1,3-1,5.4c0,0-0.9,2.4-2.5,3.7c0,0-1.3,1.3-3.1,1.8c0,0-1.8,0.6-3.8-0.1c0,0-1.4-0.4-2.8-1.4v12.6
	c0,0,0.1,1.7-1.7,1.8H-114.5L-114.5,107.6z"/>
<path fill="#F8971D" d="M-115.7,96.8l-0.2-13.8c0,0,0-4.6-7-6.5c-2.3-0.6-3.9-0.6-6.2-1c0,0-5.1-0.5-4.9-3.9c0,0-3.6,1.9-3.9,3.5
	c-0.5,2.5,2.9,2.9,2.4,2.9c0,0,1.8,0.5,5.3,0.6c1.6,0,4.1,0,5.8,0.9c2.4,1.3,3.1,2.5,3.8,4.4c0,0,1.4,3.8-1.8,6.6c0,0-2,1.9-4.3,2.1
	c0,0-3.5,0.4-6.1-1.8c0,0-1.7-1.1-1.8-4c0,0,0-2.1,1.7-3.5c0,0,0.6-0.6,2.2-1.3l-0.9-1.3c0,0-1.4-1.7-3.6-0.8
	c-0.8,0.3-1.4,0.8-1.9,1.5c0,0-2.3,2.6-2.3,5.4c0,0-0.1,2.6,1.4,4.7c0,0,1.2,2.1,3.4,3.2c0,0,1.7,1.1,4.3,1.6c0,0,2.4,0.5,5.3-0.1
	c0,0,2-0.4,3.9-1.3v0.2c0,0-0.1,1.5,2.4,1.6L-115.7,96.8L-115.7,96.8z"/>
<path fill="#F8971D" d="M-191.7,89.8h3.7c0.1,1,0.5,1.8,1.2,2.2c0.7,0.5,1.7,0.7,2.9,0.7c1.1,0,1.9-0.2,2.5-0.6s0.8-0.9,0.8-1.7
	c0-1.1-1.6-2-4.7-2.7l-0.1-0.1l-0.4-0.1c-1.8-0.4-3-0.8-3.5-1.2c-0.7-0.4-1.2-0.9-1.5-1.7c-0.3-0.6-0.5-1.4-0.5-2.4
	c0-1.7,0.6-3,1.8-4c1.2-0.9,2.9-1.4,5.2-1.4c2.1,0,3.8,0.5,4.9,1.5c1.2,1.1,1.8,2.5,1.9,4.2h-2.1c-0.8,0-1.4-0.4-1.7-1.1
	c-0.2-0.3-0.4-0.6-0.7-0.9c-0.6-0.5-1.5-0.7-2.6-0.7c-1,0-1.8,0.2-2.2,0.6c-0.5,0.4-0.8,0.9-0.8,1.6c0,0.9,1,1.6,3,2.1
	c0.6,0.2,1,0.3,1.3,0.3c0.6,0.2,1.2,0.4,1.6,0.5c0.5,0.1,0.8,0.2,1.1,0.3c0.5,0.2,1,0.4,1.5,0.6c0.7,0.4,1.2,1,1.6,1.6
	c0.4,0.7,0.6,1.5,0.6,2.4c0,1.9-0.6,3.3-1.9,4.4c-1.3,1-3,1.5-5.3,1.5c-2.4,0-4.1-0.5-5.3-1.5C-190.9,93.2-191.6,91.7-191.7,89.8z"
	/>
<path fill="#F8971D" d="M-141.1,76.9v10.8c0,3.3-0.8,5.4-2.4,6.5c-1.6,1-3.4,1.5-5.4,1.5c-1.9-0.1-3.6-0.6-5.2-1.7
	c-1.6-1-2.3-3.1-2.3-6.3V76.9h4.6v11.8c0,1.1,0.3,1.9,0.9,2.4c0.6,0.5,1.3,0.8,2.1,0.8s1.5-0.3,2.1-0.8s1-1.3,1-2.4v-9.5
	c0-0.6,0.2-1.2,0.6-1.7c0.4-0.5,1-0.7,1.6-0.7L-141.1,76.9L-141.1,76.9z"/>
<path fill="#F8971D" d="M-167.9,76.9c1.2,0,2.4,0.3,3.4,0.7c0.7,0.3,1.8,0.9,2.5,1.5c1.9,1.6,2.7,3.8,3,6.1c0.1,1.3,0.1,1.2,0.1,2.3
	v16.8c0,0-0.2,0-1.6,0c-2.8,0.2-2.5-1.7-2.5-1.7v-9.8c-1.9,1-3.5,1.4-5.1,1.4c-1.2,0-2.4-0.2-3.4-0.7c-1.1-0.5-2-1.1-2.8-1.9
	s-1.4-1.7-1.8-2.8c-0.4-1.1-0.7-2.2-0.7-3.4c0-1.2,0.2-2.3,0.7-3.4c0.5-1,1.1-2,1.9-2.8c0.8-0.8,1.7-1.4,2.8-1.9
	C-170.4,77.2-169.1,76.9-167.9,76.9z M-162.9,85.6c0-0.7-0.1-1.3-0.4-2c-0.3-0.6-0.6-1.2-1.1-1.6c-0.5-0.5-1-0.8-1.6-1.1
	c-0.6-0.3-1.3-0.4-2-0.4s-1.3,0.1-2,0.4c-0.6,0.3-1.2,0.6-1.6,1.1c-0.5,0.5-0.8,1-1.1,1.6s-0.4,1.3-0.4,2s0.1,1.4,0.4,2
	s0.6,1.2,1.1,1.6c0.5,0.5,1,0.9,1.6,1.1c0.6,0.3,1.3,0.4,2,0.4s1.3-0.1,2-0.4c0.6-0.3,1.2-0.6,1.6-1.1c0.5-0.5,0.9-1,1.1-1.6
	C-163.1,87.1-162.9,86.4-162.9,85.6z"/>
<path fill="#F8971D" d="M-88,81.2c1.2-0.1,2.4,0,3.6,0.4s2.3,0.9,3.2,1.7c1,0.7,1.8,1.7,2.4,2.7c0.7,1.1,1.1,2.2,1.2,3.4
	c0.1,0.5-0.1,1-0.4,1.4s-0.8,0.7-1.4,0.7l-12.8,1.6c0.9,1.2,1.9,2.1,2.9,2.5s2,0.6,3,0.5c0.5-0.1,1-0.2,1.3-0.4
	c0.4-0.2,0.4-0.2,0.7-0.3c0.8-0.5,1.7-0.7,2.3,0.5c0.3,0.7,0.9,2,0.9,2.1c0,0-0.7,0.6-2.2,1.2c-0.8,0.3-1.7,0.6-2.6,0.7
	c-1.2,0.2-2.5,0.1-3.6-0.2c-1.2-0.4-2.3-0.9-3.2-1.7c-1-0.8-1.7-1.7-2.4-2.8c-0.6-1.1-1-2.3-1.2-3.5c-0.1-1.2,0-2.4,0.3-3.6
	c0.4-1.2,0.9-2.3,1.7-3.2c0.8-1,1.7-1.8,2.7-2.4C-90.4,81.8-89.3,81.4-88,81.2z M-81.6,87.8c-0.7-0.9-1.6-1.7-2.6-2.2
	s-2.1-0.7-3.3-0.6c-1.2,0.1-2.2,0.6-3.1,1.4s-1.5,1.7-1.9,2.7c0,0.1-0.1,0.1-0.1,0.2l11-1.3C-81.6,87.9-81.6,87.9-81.6,87.8
	L-81.6,87.8z"/>
<path fill="#784B1E" d="M148.1,149.6l0.3-52.2c0,0,0.1-9.8,9.4-13.8c3.1-1.3,5.3-1.4,8.3-2.1c0,0,6.8-1,6.5-8.2c0,0,4.8,4,5.2,7.5
	c0.6,5.4-3.9,6.2-3.2,6.1c0,0-2.4,1.1-7.1,1.2c-2.2,0-5.5-0.1-7.8,1.9c-3.2,2.8-4.2,5.4-5.1,9.3c0,0-1.9,8,2.4,14.2
	c0,0,2.6,4.1,5.8,4.4c0,0,4.8,0.9,8.3-3.8c0,0,2.3-2.4,2.4-8.6c0,0-0.1-4.4-2.3-7.4c0,0-0.8-1.3-3-2.9l1.2-2.7c0,0,1.9-3.6,4.8-1.7
	c1,0.7,1.8,1.8,2.5,3.2c0,0,3.1,5.6,3.1,11.5c0,0,0.1,5.5-1.8,10c0,0-1.6,4.4-4.6,6.9c0,0-2.3,2.4-5.8,3.3c0,0-3.3,1-7.1-0.2
	c0,0-2.6-0.8-5.3-2.7v23.3c0,0,0.2,3.1-3.2,3.4L148.1,149.6L148.1,149.6z"/>
<path fill="#784B1E" d="M145.7,129.5l-0.4-25.5c0,0-0.1-8.5-12.9-12c-4.3-1.2-7.3-1.2-11.5-1.8c0,0-9.4-0.9-9-7.1
	c0,0-6.6,3.5-7.2,6.5c-0.9,4.7,5.3,5.4,4.4,5.3c0,0,3.3,1,9.8,1.1c3,0,7.5-0.1,10.7,1.7c4.4,2.5,5.8,4.7,7.1,8.1c0,0,2.6,7-3.3,12.3
	c0,0-3.7,3.6-8.1,3.9c0,0-6.6,0.8-11.4-3.3c0,0-3.2-2.1-3.3-7.5c0,0,0.1-3.8,3.2-6.5c0,0,1-1.2,4.1-2.5l-1.7-2.4
	c0,0-2.6-3.2-6.6-1.5c-1.4,0.6-2.5,1.6-3.5,2.8c0,0-4.2,4.8-4.3,10c0,0-0.2,4.8,2.5,8.7c0,0,2.3,3.8,6.4,6c0,0,3.2,2.1,8,2.9
	c0,0,4.5,0.9,9.8-0.2c0,0,3.6-0.7,7.2-2.3l-0.1,0.4c0,0-0.3,2.7,4.4,3L145.7,129.5L145.7,129.5z"/>
<path fill="#784B1E" d="M4.8,116.4h6.8c0.3,1.9,1,3.3,2.2,4.1c1.3,0.9,3.1,1.4,5.3,1.4c2,0,3.5-0.4,4.5-1.1s1.5-1.7,1.5-3.1
	c0-2.1-2.9-3.7-8.7-5l-0.2-0.1l-0.8-0.2c-3.3-0.7-5.5-1.5-6.6-2.2c-1.3-0.7-2.2-1.7-2.7-3.1c-0.6-1.2-1-2.6-1-4.5
	c0-3.2,1.1-5.6,3.3-7.5c2.2-1.7,5.4-2.6,9.6-2.6c3.9,0,7,0.9,9.1,2.7c2.2,2,3.4,4.6,3.5,7.8h-3.9c-1.5,0-2.5-0.7-3.2-2
	c-0.3-0.6-0.8-1.2-1.4-1.6c-1.2-0.8-2.7-1.3-4.7-1.3c-1.9,0-3.3,0.4-4.2,1.1c-1,0.7-1.5,1.7-1.5,3c0,1.7,1.9,3,5.6,3.9
	c1.1,0.3,1.9,0.5,2.4,0.6c1.2,0.4,2.2,0.7,3,0.9c0.9,0.2,1.6,0.4,2.1,0.5c0.9,0.4,1.8,0.8,2.7,1.2c1.3,0.8,2.3,1.8,3,3
	c0.7,1.4,1.1,2.8,1.1,4.5c0,3.5-1.2,6.2-3.5,8.1c-2.3,1.8-5.6,2.7-9.9,2.7c-4.4,0-7.7-0.9-9.9-2.8C6.2,122.9,4.9,120.1,4.8,116.4z"
	/>
<path fill="#784B1E" d="M98.6,92.5v20.1c0,6.1-1.5,10.1-4.5,12s-6.3,2.8-9.9,2.8c-3.5-0.2-6.7-1.2-9.6-3.1s-4.4-5.8-4.4-11.7V92.5
	h8.6v21.9c0,2.1,0.6,3.6,1.7,4.5s2.5,1.4,3.9,1.4c1.5,0,2.8-0.5,4-1.4s1.8-2.5,1.8-4.5V96.9c0-1.2,0.4-2.2,1.2-3.1
	c0.8-0.9,1.8-1.3,3-1.3H98.6L98.6,92.5z"/>
<path fill="#784B1E" d="M48.9,92.5c2.2,0,4.5,0.6,6.3,1.2c1.4,0.5,3.3,1.7,4.6,2.9c3.5,3,5.1,7,5.5,11.2c0.2,2.4,0.1,2.2,0.1,4.3
	v31.1c0,0-0.3,0-2.9,0c-5.1,0.3-4.6-3.1-4.6-3.1V122c-3.6,1.8-6.6,2.7-9.4,2.7c-2.3,0-4.4-0.4-6.3-1.3c-2-0.8-3.7-2-5.1-3.5
	c-1.4-1.5-2.6-3.2-3.4-5.1c-0.8-1.9-1.2-4-1.2-6.2s0.4-4.3,1.3-6.2c0.9-1.9,2-3.7,3.5-5.1c1.5-1.5,3.2-2.6,5.1-3.5
	C44.3,93,46.8,92.5,48.9,92.5z M58.1,108.7c0-1.3-0.2-2.5-0.7-3.7s-1.2-2.2-2-3c-0.9-0.9-1.9-1.5-3-2.1c-1.2-0.5-2.4-0.8-3.8-0.8
	c-1.3,0-2.5,0.2-3.7,0.7s-2.2,1.2-3,2c-0.9,0.9-1.6,1.9-2.1,3c-0.5,1.2-0.8,2.4-0.8,3.7c0,1.3,0.2,2.6,0.7,3.7
	c0.5,1.2,1.2,2.2,2,3.1s1.8,1.6,3,2.1s2.4,0.8,3.8,0.8c1.3,0,2.5-0.2,3.7-0.7s2.2-1.1,3.1-2c0.9-0.9,1.6-1.9,2.1-3.1
	C57.9,111.4,58.1,110.1,58.1,108.7z"/>
<path fill="#784B1E" d="M197.2,100.5c2.3-0.3,4.5-0.1,6.7,0.7c2.2,0.7,4.2,1.8,6,3.1c1.8,1.4,3.3,3.1,4.5,5c1.2,2,2,4.1,2.2,6.4
	c0.1,0.9-0.1,1.8-0.8,2.6c-0.6,0.8-1.5,1.3-2.6,1.4l-23.7,2.9c1.7,2.3,3.5,3.8,5.4,4.6c1.9,0.8,3.8,1.1,5.6,0.9
	c1-0.1,1.8-0.3,2.5-0.7c0.7-0.3,0.8-0.3,1.3-0.6c1.5-1,3.2-1.4,4.3,0.9c0.6,1.3,1.7,3.7,1.7,3.9c0,0-1.3,1.1-4,2.2
	c-1.5,0.6-3.1,1-4.9,1.3c-2.3,0.4-4.5,0.2-6.8-0.4c-2.2-0.7-4.2-1.7-6-3.1c-1.8-1.4-3.2-3.1-4.4-5.1c-1.2-2-1.9-4.2-2.2-6.5
	s-0.1-4.5,0.6-6.7c0.7-2.2,1.7-4.2,3.1-6c1.4-1.8,3.1-3.3,5-4.5C192.7,101.6,194.8,100.8,197.2,100.5z M209,112.8
	c-1.4-1.7-3-3.1-4.9-4.1s-3.9-1.4-6-1.1c-2.2,0.3-4.1,1.1-5.7,2.6c-1.6,1.4-2.8,3.1-3.6,5c-0.1,0.1-0.1,0.2-0.1,0.3l20.5-2.5
	c0,0-0.1,0-0.1-0.1L209,112.8z"/>
<path fill="#F8971D" d="M148.1,145.9l0.3-52.2c0,0,0.1-9.8,9.4-13.8c3.1-1.3,5.3-1.4,8.3-2.1c0,0,6.8-1,6.5-8.2c0,0,4.8,4,5.2,7.5
	c0.6,5.4-3.9,6.2-3.2,6.1c0,0-2.4,1.1-7.1,1.2c-2.2,0-5.5-0.1-7.8,1.9c-3.2,2.8-4.2,5.4-5.1,9.3c0,0-1.9,8,2.4,14.2
	c0,0,2.6,4.1,5.8,4.4c0,0,4.8,0.9,8.3-3.8c0,0,2.3-2.4,2.4-8.6c0,0-0.1-4.4-2.3-7.4c0,0-0.8-1.3-3-2.9l1.2-2.7c0,0,1.9-3.6,4.8-1.7
	c1,0.7,1.8,1.8,2.5,3.2c0,0,3.1,5.6,3.1,11.5c0,0,0.1,5.5-1.8,10c0,0-1.6,4.4-4.6,6.9c0,0-2.3,2.4-5.8,3.3c0,0-3.3,1-7.1-0.2
	c0,0-2.6-0.8-5.3-2.7v23.3c0,0,0.2,3.1-3.2,3.4L148.1,145.9L148.1,145.9z"/>
<path fill="#F8971D" d="M145.7,125.9l-0.4-25.5c0,0-0.1-8.5-12.9-12c-4.3-1.2-7.3-1.2-11.5-1.8c0,0-9.4-0.9-9-7.1
	c0,0-6.6,3.5-7.2,6.5c-0.9,4.7,5.3,5.4,4.4,5.3c0,0,3.3,1,9.8,1.1c3,0,7.5-0.1,10.7,1.7c4.4,2.5,5.8,4.7,7.1,8.1c0,0,2.6,7-3.3,12.3
	c0,0-3.7,3.6-8.1,3.9c0,0-6.6,0.8-11.4-3.3c0,0-3.2-2.1-3.3-7.5c0,0,0.1-3.8,3.2-6.5c0,0,1-1.2,4.1-2.5l-1.7-2.4
	c0,0-2.6-3.2-6.6-1.5c-1.4,0.6-2.5,1.6-3.5,2.8c0,0-4.2,4.8-4.3,10c0,0-0.2,4.8,2.5,8.7c0,0,2.3,3.8,6.4,6c0,0,3.2,2.1,8,2.9
	c0,0,4.5,0.9,9.8-0.2c0,0,3.6-0.7,7.2-2.3l-0.1,0.4c0,0-0.3,2.7,4.4,3L145.7,125.9L145.7,125.9z"/>
<path fill="#F8971D" d="M4.8,112.8h6.8c0.3,1.9,1,3.3,2.2,4.1c1.3,0.9,3.1,1.4,5.3,1.4c2,0,3.5-0.4,4.5-1.1s1.5-1.7,1.5-3.1
	c0-2.1-2.9-3.7-8.7-5l-0.2-0.1l-0.8-0.2c-3.3-0.7-5.5-1.5-6.6-2.2c-1.3-0.7-2.2-1.7-2.7-3.1c-0.6-1.2-1-2.6-1-4.5
	c0-3.2,1.1-5.6,3.3-7.5c2.2-1.7,5.4-2.6,9.6-2.6c3.9,0,7,0.9,9.1,2.7c2.2,2,3.4,4.6,3.5,7.8h-3.9c-1.5,0-2.5-0.7-3.2-2
	c-0.3-0.6-0.8-1.2-1.4-1.6c-1.2-0.8-2.7-1.3-4.7-1.3c-1.9,0-3.3,0.4-4.2,1.1c-1,0.7-1.5,1.7-1.5,3c0,1.7,1.9,3,5.6,3.9
	c1.1,0.3,1.9,0.5,2.4,0.6c1.2,0.4,2.2,0.7,3,0.9c0.9,0.2,1.6,0.4,2.1,0.5c0.9,0.4,1.8,0.8,2.7,1.2c1.3,0.8,2.3,1.8,3,3
	c0.7,1.4,1.1,2.8,1.1,4.5c0,3.5-1.2,6.2-3.5,8.1c-2.3,1.8-5.6,2.7-9.9,2.7c-4.4,0-7.7-0.9-9.9-2.8C6.2,119.2,4.9,116.4,4.8,112.8z"
	/>
<path fill="#F8971D" d="M98.6,88.9V109c0,6.1-1.5,10.1-4.5,12s-6.3,2.8-9.9,2.8c-3.5-0.2-6.7-1.2-9.6-3.1s-4.4-5.8-4.4-11.7V88.9
	h8.6v21.9c0,2.1,0.6,3.6,1.7,4.5s2.5,1.4,3.9,1.4c1.5,0,2.8-0.5,4-1.4s1.8-2.5,1.8-4.5V93.3c0-1.2,0.4-2.2,1.2-3.1
	c0.8-0.9,1.8-1.3,3-1.3H98.6L98.6,88.9z"/>
<path fill="#F8971D" d="M48.9,88.8c2.2,0,4.5,0.6,6.3,1.2c1.4,0.5,3.3,1.7,4.6,2.9c3.5,3,5.1,7,5.5,11.2c0.2,2.4,0.1,2.2,0.1,4.3
	v31.1c0,0-0.3,0-2.9,0c-5.1,0.3-4.6-3.1-4.6-3.1v-18.1c-3.6,1.8-6.6,2.7-9.4,2.7c-2.3,0-4.4-0.4-6.3-1.3c-2-0.8-3.7-2-5.1-3.5
	c-1.4-1.5-2.6-3.2-3.4-5.1c-0.8-1.9-1.2-4-1.2-6.2s0.4-4.3,1.3-6.2c0.9-1.9,2-3.7,3.5-5.1c1.5-1.5,3.2-2.6,5.1-3.5
	C44.3,89.4,46.8,88.8,48.9,88.8z M58.1,105c0-1.3-0.2-2.5-0.7-3.7s-1.2-2.2-2-3c-0.9-0.9-1.9-1.5-3-2.1c-1.2-0.5-2.4-0.8-3.8-0.8
	c-1.3,0-2.5,0.2-3.7,0.7s-2.2,1.2-3,2c-0.9,0.9-1.6,1.9-2.1,3c-0.5,1.2-0.8,2.4-0.8,3.7c0,1.3,0.2,2.6,0.7,3.7
	c0.5,1.2,1.2,2.2,2,3.1s1.8,1.6,3,2.1s2.4,0.8,3.8,0.8c1.3,0,2.5-0.2,3.7-0.7s2.2-1.1,3.1-2c0.9-0.9,1.6-1.9,2.1-3.1
	C57.9,107.7,58.1,106.4,58.1,105z"/>
<path fill="#F8971D" d="M197.2,96.9c2.3-0.3,4.5-0.1,6.7,0.7c2.2,0.7,4.2,1.8,6,3.1c1.8,1.4,3.3,3.1,4.5,5c1.2,2,2,4.1,2.2,6.4
	c0.1,0.9-0.1,1.8-0.8,2.6c-0.6,0.8-1.5,1.3-2.6,1.4l-23.7,2.9c1.7,2.3,3.5,3.8,5.4,4.6c1.9,0.8,3.8,1.1,5.6,0.9
	c1-0.1,1.8-0.3,2.5-0.7c0.7-0.3,0.8-0.3,1.3-0.6c1.5-1,3.2-1.4,4.3,0.9c0.6,1.3,1.7,3.7,1.7,3.9c0,0-1.3,1.1-4,2.2
	c-1.5,0.6-3.1,1-4.9,1.3c-2.3,0.4-4.5,0.2-6.8-0.4c-2.2-0.7-4.2-1.7-6-3.1c-1.8-1.4-3.2-3.1-4.4-5.1s-1.9-4.2-2.2-6.5
	s-0.1-4.5,0.6-6.7c0.7-2.2,1.7-4.2,3.1-6c1.4-1.8,3.1-3.3,5-4.5C192.7,97.9,194.8,97.2,197.2,96.9z M209,109.2
	c-1.4-1.7-3-3.1-4.9-4.1s-3.9-1.4-6-1.1c-2.2,0.3-4.1,1.1-5.7,2.6c-1.6,1.4-2.8,3.1-3.6,5c-0.1,0.1-0.1,0.2-0.1,0.3l20.5-2.5
	c0,0-0.1,0-0.1-0.1L209,109.2z"/>
</svg>
