<?xml version="1.0" encoding="utf-8"?>
<!-- Generator: Adobe Illustrator 17.1.0, SVG Export Plug-In . SVG Version: 6.00 Build 0)  -->
<!DOCTYPE svg PUBLIC "-//W3C//DTD SVG 1.1//EN" "http://www.w3.org/Graphics/SVG/1.1/DTD/svg11.dtd">
<svg version="1.1" id="Layer_1" xmlns="http://www.w3.org/2000/svg" xmlns:xlink="http://www.w3.org/1999/xlink" x="0px" y="0px"
	 viewBox="0 0 150 150" enable-background="new 0 0 150 150" xml:space="preserve">
<g id="Icon_193_">
	<g>
		<path fill-rule="evenodd" clip-rule="evenodd" fill="#C03A2B" d="M134.8,55.8c-3.2-0.1-55.9,28.5-58,27.9
			c-2.1-0.6-25.9-60-27.7-60.8c-1.3-0.6-5,1.6-6.8,2.6C10.5,43-0.2,82.7,16.9,114c17,31.3,56.5,42.1,88.5,25
			C149.4,115.4,138,55.9,134.8,55.8z"/>
	</g>
</g>
<g id="Icon_7_">
	<g>
		<path fill-rule="evenodd" clip-rule="evenodd" fill="#F0C419" d="M102.4,6.9C82.2,0.4,54.2,12.2,54,13.2
			C53.7,15.4,78.2,74.3,80.6,75c2.4,0.7,59.7-31.8,59.9-33.5C140.6,40.5,125.3,14.4,102.4,6.9z"/>
	</g>
</g>
</svg>
